<svg xmlns="http://www.w3.org/2000/svg" width="1129" height="450" viewBox="0 0 1129 450">
  <defs>
    <style>
      .cls-1 {
        fill: #fff;
        fill-rule: evenodd;
      }
    </style>
  </defs>
  <path id="WM_Police_-_Xavier_1" class="cls-1" d="M21.07,0C57.811-.126,45.05,47.107,50.289,77.887l6.6,47.423c6.584,30.251,12.321,59.333,21.05,87,6.216,19.7,13.23,39.045,21.05,57.473q5.811,12.718,11.624,25.439l0.629-.314,13.2-23.24,25.763-51.82c21.642-49.085,38.946-100.61,53.411-157.659,5.687-22.428,3.179-53.706,26.077-59.357a24.034,24.034,0,0,1,17.28,2.827c9.388,5.787,12.189,17.767,9.111,31.72-4.664,21.146-7.823,42.4-13.824,62.5-17.878,59.89-36.761,115.556-62.836,166.767-9.238,18.144-18.594,36.147-28.9,53.39q-6.911,10.834-13.824,21.67c-0.285,1.733,11.582,16.961,13.2,19.158,9.6,13.06,19.872,26.3,32.675,36.117,7.339,5.626,18.56,9.029,23.563,16.959,4.291,6.8,4.2,18.306,0,25.125-8.809,14.288-25.974,11.691-38.958,3.769a162.242,162.242,0,0,1-41.786-37.374l-17.28-22.3L94.274,400.427c-12.595,15.84-28.6,31.96-46.185,42.713-11.723,7.169-27.88,11.447-37.7-1.257-5.561-7.191-6.523-20.305-.943-28.265,3.653-5.211,9.382-6.835,14.767-10.364L38.35,391.948C54.4,379.019,69.76,357.619,81.707,340.442L66,309.978c-11.382-25.7-22.512-52.275-31.418-80.4C26.511,204.1,20.612,177.5,14.158,150.121L5.989,99.871c-3.433-18.138-1.628-36.656-4.713-55.9-1.361-8.495-2.26-22.536.628-29.522C5.678,5.319,11.8,3.858,21.07,0ZM610.788,34.861c12.691-.212,20.6,5.66,24.192,14.447,3.068,7.5,1.684,21.912.314,30.778-3.2,20.7-1.726,40.646-5.341,60.3l-8.8,55.9c-10.675,48.554-21.815,94.365-39.587,135.046-9.144,20.931-20.77,48.089-44.3,54.333-25.642,6.8-41.25-23.459-48.069-38.944-22.941-52.089-37.579-110.567-50.584-173.676q-2.826-21.039-5.655-42.084-0.313-7.536-.628-15.075c-0.728-4.853-.913-12.837.314-17.273a24.74,24.74,0,0,1,10.682-14.133,28.326,28.326,0,0,1,9.426-3.141c5.424-.922,10.085,1.225,13.195,2.827,18.121,9.33,10.753,33.444,14.767,55.9q4.083,24.338,8.168,48.68c7.593,30.817,14.908,61.014,23.878,89.507a419.769,419.769,0,0,0,14.453,39.571c1.436,3.351,2.309,7.632,4.712,10.05v-0.628c9.075-12.353,16.212-36.46,21.365-52.762,9.39-29.709,16.328-61.614,23.563-94.532q3.927-26.536,7.855-53.076,2.355-26.85,4.712-53.7c1.418-8.739-.456-18.084,2.514-24.811C595.675,39.9,601.98,38.521,610.788,34.861ZM380.807,275.745q1.257,20.883,2.514,41.77,0.942,9.108,1.885,18.216c1.067,3.947,4.15,6.932,5.027,11.934,2.474,14.121-9.1,23.007-19.48,24.811-10.4,1.808-17.816-4.855-21.678-10.05-11.669-15.7-12.425-59.153-12.567-86.053l-17.28-1.256q-3.143,20.254-6.284,40.514c-4.2,20.976-5.143,44.371-14.767,59.986-3.988,6.471-11.769,15.414-23.877,13.19-10.291-1.89-22.083-10.639-19.48-24.811,1.031-5.61,3.819-8.362,5.97-12.248q1.57-5.967,3.142-11.934,4.555-27.164,9.111-54.333c-14.7.313-27.811-11.664-21.364-27.323,4-9.714,16.476-18.365,28.276-20.1q4.712-28.419,9.425-56.845c7.379-33.978,12.3-66.9,24.507-95.16,5.03-11.648,15.774-34.418,34.559-31.092,22.819,4.041,22.267,24.73,26.077,48.051,2.693,16.477.109,34.546,2.828,52.134q1.1,40.038,2.2,80.086c3.872-.887,5.454-3.511,8.483-5.025,9.888-4.944,21.473.447,25.763,6.909C427.807,258.22,398.431,274.593,380.807,275.745Zm593.8-.628c-4.561.157-9.275,1.285-13.509,0-10.846-3.29-19.413-18.13-11.311-30.464,5.444-8.287,13.667-7.089,24.82-10.05q-0.627-48.047-1.256-96.1c-1.059-6.915,1.493-26.6-1.885-30.15-3.29-1.664-6.42-2.3-9.112-4.4-10.625-8.268-7.263-26.567,2.828-32.662,8.365-5.053,22.229-3.791,33.617-5.653l19.789,0.628c7.72,1.288,14.43,1.1,21.37,2.827,19.69,4.9,36.42,12.23,50.58,22.612a104.761,104.761,0,0,1,27.65,30.778,88.257,88.257,0,0,1,8.48,20.728c4.91,17.492,1.43,38.392-4.4,51.82-13.74,31.694-49,56.861-84.82,66.267q11.46,18.37,22.93,36.745c15.57,25.961,29.31,53.233,45.24,78.515l6.6,10.05c1.26,0.733,2.51,1.465,3.77,2.2,5.38,4.045,9.54,13.5,6.28,22.3-1.41,3.812-3.32,7.209-6.28,9.421-13.3,9.938-28.72-.9-35.5-9.736-14.93-19.429-25.6-42.435-38.33-64.068q-10.845-18.842-21.68-37.687h-0.31c0.29,24.379-3.17,63.655-16.66,74.118-7.019,5.449-19.07,8.217-28.272,2.513-5.578-3.458-12.574-12.12-10.682-22.613,0.95-5.274,3.972-8.373,5.026-12.876C974.6,328.745,974.468,299.907,974.609,275.117ZM826,117.773v46.8q-0.157,12.247-.314,24.5-1.257,31.087-2.514,62.184c19.581-5.914,62.275-7.245,57.5,19.471-1.711,9.564-7.814,15.807-17.28,17.588l-16.651-.314-25.449,3.454q-0.786,30.933-1.571,61.87c12.7,0.768,28.262,2.186,40.215-.628,5.007-1.178,7.825-4.656,13.51-5.653,12.077-2.117,24.619,10.388,22.307,22.612-4.693,24.819-50.537,28.257-81.059,23.241-11.4-1.874-23.832-1.3-31.418-6.909-13.368-9.882-10.1-40.368-9.74-62.812q3.143-81.805,6.284-163.626c3.115-20.222-6.537-59.975,1.257-72.548,7.766-12.529,28.668-9.108,48.384-9.108,35.385,0,92.028-.18,97.082,28.894,2.089,12.019-10.252,24.456-22.307,22.3-7.018-1.256-9.758-5.628-16.023-7.223C870.134,117.252,847.384,117.923,826,117.773ZM698.13,88.565c34.241-.782,42.653,35.532,12.881,44.6-19.063,5.8-45.072-8.676-36.759-28.894C678.663,93.541,687.027,92.919,698.13,88.565Zm320.78,17.588c0.23,38.085,2.14,78.76,2.2,118.4,22.65-3.8,54.44-24.823,63.46-42.4,4.4-8.572,6.32-22.486,2.2-32.976C1076.75,123.643,1050.42,110.314,1018.91,106.153ZM698.758,145.41c35.448-.273,22.585,34.388,27.02,64.383q0.313,18.055.628,36.117-0.156,13.659-.314,27.323-0.158,13.032-.314,26.067c-3.573,23.342-1.6,46.471-7.226,66.895-3.488,12.651-11.832,31.52-30.162,28.265-10.832-1.923-22.911-11.091-20.421-25.753,1.291-7.6,5.295-11.361,6.912-18.843,3.461-16.019,1.758-34.056,4.4-51.506q0.158-11.934.314-23.869l0.315-28.265q-0.315-18.372-.629-36.745V197.544c-1.887-12.7-3.045-32.931,2.2-41.456C685.55,149.469,691.061,148.664,698.758,145.41ZM335.251,236.174q-0.786-26.379-1.571-52.763-4.24,26.066-8.483,52.135Z"/>
</svg>
