<svg xmlns="http://www.w3.org/2000/svg" width="1160" height="476" viewBox="0 0 1160 476">
  <defs>
    <style>
      .cls-1 {
        fill: #fff;
        fill-rule: evenodd;
      }
    </style>
  </defs>
  <path id="WM_Police_-_Aigline_1" class="cls-1" d="M546.782,0.481c27.428-.233,24.048,18.074,27.6,41.347V100.85q-3.013,63.908-6.028,127.828-2.061,37.872-4.124,75.75-0.792,17.99-1.586,35.981-0.317,9.942-.634,19.885c-3.259,21.526-.368,47.724,1.586,67.544,20.457,2.6,42.667,2.745,64.081,6l33.31,0.947c15.293,2.293,43.916.6,57.737-1.893l14.593-3.157c4.434-1.735,6.913-5.58,13.006-6.628,14.191-2.441,26.071,11.739,21.89,25.566-6.538,21.619-35.237,21.471-60.275,25.25-13.058,1.971-35.508,3.05-49.489.947l-19.668-.316c-19.079-2.915-39.2-1.443-57.42-4.419-20.658-3.374-42.261-2.7-59.64-9.468-14.712-5.726-21.784-26.228-6.028-36.3-0.309-21.12-3.9-46.453-.634-68.175q0.317-9.625.634-19.254,0.635-14.517,1.269-29.037,0.952-18.462,1.9-36.928,1.745-31.086,3.489-62.178,2.379-50.337,4.759-100.685,0.159-14.359.317-28.722V45.3c-1.416-9.538-3-23.279.317-30.931C531.561,5.572,537.825,4.4,546.782.481ZM162.928,273.5c10.6-.767,14.829-5.918,21.889-9.153,11.076-5.076,22.722.941,26.965,8.522,13.717,24.506-27.131,40.386-47.585,40.715q1.426,27.457,2.855,54.919c1.908,11.981,1.062,23.4,3.489,34.4,1.333,6.037,5.463,8.947,6.662,15.781,2.381,13.569-8.7,22.595-18.4,24.619-14.417,3.008-23.765-7.946-27.6-17.044-7.125-16.907-5.8-38.192-9.2-59.968q-1.269-26.195-2.537-52.394l-38.386-2.21-9.517,61.547c-4.842,24.1-6.762,48.919-14.91,69.438-4.4,11.086-13.082,27.046-31.089,22.725-9.952-2.388-20.895-12.3-17.448-26.513,1.841-7.593,6.888-11.263,9.2-18.937,5.379-17.859,6.614-37.174,10.469-56.5l6.662-42.925C20.64,330.755-4.4,323.2.82,301.587c3.236-13.4,24.67-26.519,40.606-27.459,3.185-27.019,7.684-54.922,13.324-80.8,9.383-43.059,15.335-85.569,30.455-122.147,6.046-14.627,19.173-47.868,41.875-43.872,26.6,4.682,24.481,32.909,28.869,59.969q1.744,27.3,3.489,54.6,0.159,8.836.317,17.675Q161.342,216.521,162.928,273.5ZM952.209,61.081c16.012-.393,30.876,10.355,26.648,28.091-1.862,7.812-6.271,9.846-10.469,14.834-3.6,4.272-8.143,24.237-10.151,30.931-10.777,35.92-14.862,75.031-22.207,114.257q-2.061,17.042-4.124,34.087-1.11,17.516-2.221,35.035v22.725c2.14,13.189,8.194,23.389-.634,34.718-13.361,17.147-38.233,7.252-48.22-5.365-17.483-22.089-27.523-51.228-38.7-79.538-5.46-13.824-12.709-29.237-15.545-44.5h-0.317q-1.11,19.725-2.221,39.453v13.888c-1.549,10.073-1.237,24.539.317,34.4q1.111,16.726,2.221,33.456l4.441,22.725c1.731,5.552,4.643,9.784,5.71,16.1,2.324,13.739-12.288,28.042-26.33,25.566-24.381-4.3-25.793-34.313-30.137-58.707-2.021-11.344-1.258-24.417-3.173-36.612V325.891c-1.747-11.443-1.441-31.778.318-42.925q0.633-16.412,1.268-32.825c4.5-28.409,3.723-57.551,9.2-83.957,4.34-20.919,5.1-50.472,20.3-60.6,14.116-9.4,32.034-.714,36.165,12.31q1.269,12.15,2.538,24.3c7.4,33.927,15.857,66.038,26.648,96.581,2.805,7.94,7.861,29.579,12.372,34.719q3.489-26.669,6.979-53.341c7.044-34.458,11.745-69.151,21.255-100.684,6.066-20.114,10.7-44.665,26.965-54.6C944.415,62.847,948.291,62.767,952.209,61.081ZM457.957,341.988c0.23,15.011,5.23,28.894,9.2,40.4,16.428,0.923,22.243,25.457,9.835,35.034-19.97,15.414-40.334-5.607-46.951-19.569l-1.586,1.263c-2.633,5.516-9.271,9.642-14.276,12.94-27.225,17.944-57.533,3.059-72.012-17.043-35.4-49.142-32.565-161.237-8.883-221.885,7.118-18.23,15.428-34.3,26.648-48.291a69.141,69.141,0,0,1,40.289-24.3c16-3.3,32.9,2.229,42.509,7.891,37.278,21.968,39.5,75.326,28.551,127.512q-0.951,6.312-1.9,12.625l3.49,4.735c3.285,7.543.706,16.577-3.173,21.462-13.193,16.617-37.727,9.193-41.558-11.047-1.583-8.365.472-18.006,1.9-24.934,4.957-23.994,12.468-64.656.952-86.8-4.239-8.149-16.429-15.861-28.869-10.416-12.677,5.55-20.465,20.992-26.013,33.772-17.168,39.544-28.288,108.763-14.91,161.6,3.742,14.781,7.675,31.3,18.082,39.454,16.462,12.9,31.012-20.332,32.675-34.719-18.278.185-29.062-18.657-17.765-33.141a21.521,21.521,0,0,1,10.152-6.628c7.48-2.074,32.65-1.276,40.923,0l17.765-.316C488.409,306.113,486.9,342.431,457.957,341.988ZM1058.17,149.772V196.8q-0.165,12.307-.32,24.619-1.275,31.243-2.54,62.493c19.77-5.942,62.88-7.28,58.05,19.569-1.72,9.611-7.89,15.886-17.44,17.675l-16.82-.315-25.69,3.471q-0.795,31.086-1.59,62.179c12.82,0.771,28.54,2.2,40.61-.632,5.05-1.184,7.9-4.679,13.64-5.681,12.19-2.128,24.86,10.44,22.52,22.725-4.74,24.942-51.03,28.4-81.84,23.356-11.51-1.882-24.07-1.308-31.73-6.943-13.49-9.929-10.2-40.576-9.83-63.125q3.165-82.212,6.34-164.441c3.15-20.322-6.6-60.273,1.27-72.91,7.84-12.591,28.95-9.153,48.86-9.153,35.73,0,92.92-.18,98.02,29.038,2.11,12.079-10.35,24.578-22.52,22.409-7.09-1.262-9.86-5.655-16.18-7.259C1102.73,149.248,1079.76,149.922,1058.17,149.772ZM668.284,110.634c34.579-.786,43.057,35.712,13.006,44.819-19.249,5.834-45.506-8.73-37.116-29.038C648.627,115.635,657.072,115.009,668.284,110.634Zm-411.137,3.472c34.579-.786,43.057,35.712,13.006,44.819-19.249,5.833-45.506-8.73-37.116-29.038C237.49,119.107,245.935,118.481,257.147,114.106ZM118.2,273.812q-2.062-72.27-4.125-144.556l-0.634.316-8.248,36.612q-5.076,28.4-10.152,56.813l-7.931,48.922Zm550.72-106.05c35.793-.274,22.8,34.559,27.282,64.7q0.318,18.145.635,36.3-0.159,13.73-.318,27.46-0.158,13.1-.317,26.2c-3.607,23.456-1.6,46.708-7.3,67.228-3.515,12.662-11.858,31.5-30.138,28.406-11.2-1.9-23.618-11.121-20.937-26.2,1.319-7.418,5.37-11.208,6.979-18.622,3.5-16.107,1.775-34.219,4.441-51.762l0.318-23.988q0.158-14.2.317-28.406-0.318-18.462-.635-36.928V220.156c-1.906-12.764-3.074-33.095,2.221-41.662C655.589,171.829,661.128,171.039,668.918,167.762Zm-411.137,3.472c35.8-.274,22.8,34.559,27.282,64.7q0.318,18.147.635,36.3-0.159,13.73-.317,27.46-0.159,13.1-.318,26.2c-3.607,23.458-1.61,46.7-7.3,67.228-3.522,12.714-11.947,31.677-30.455,28.406-10.938-1.933-23.134-11.146-20.62-25.881,1.373-8.051,5.59-12.276,7.3-20.516,3.261-15.75,1.548-33.232,4.124-50.184l0.318-23.988q0.157-14.2.317-28.406-0.318-18.462-.635-36.928V223.628c-1.906-12.764-3.074-33.095,2.221-41.663C244.452,175.3,249.991,174.511,257.781,171.234Z"/>
</svg>
