<svg xmlns="http://www.w3.org/2000/svg" width="1750" height="474" viewBox="0 0 1750 474">
  <defs>
    <style>
      .cls-1 {
        fill: #fff;
        fill-rule: evenodd;
      }
    </style>
  </defs>
  <path id="WM_Police_-_Alexandre_1" class="cls-1" d="M270.081-.142c27.237-.233,23.871,18,27.4,41.2V99.861q-2.518,55.342-5.039,110.7-2.046,36.791-4.094,73.588-0.944,19.5-1.889,39-0.472,12.105-.945,24.214l-0.63,25.473c-0.407,18.008.743,36.8,1.89,53.147l53.851,5.346,31.177,1.258c10.313,1.554,25.351,1.92,35.9.314l30.547-1.572,17.95-3.774c4.089-1.922,6.483-5.287,12.282-6.29,14.086-2.434,25.882,11.7,21.73,25.473-6.494,21.543-34.983,21.385-59.835,25.158-15.173,2.3-44.646,3.023-60.465.629l-20.784-.629-50.387-4.4c-19.723-3.339-40.442-2.978-56.371-10.063-16.22-7.215-13.254-24.044-3.149-34.907-0.236-21.187-3.9-46.465-.63-68.241l0.63-19.183q0.63-14.464,1.26-28.932,1.1-21.225,2.2-42.454,1.733-30.973,3.464-61.952,2.2-47.325,4.409-94.658,0.157-14.307.315-28.617V44.514c-1.406-9.5-2.978-23.194.315-30.819C254.971,4.93,261.189,3.759,270.081-.142ZM162.064,276.283c10.521-.765,14.721-5.9,21.729-9.12,11-5.057,22.556.938,26.768,8.491,13.617,24.417-26.933,40.24-47.238,40.567q1.417,27.357,2.835,54.719c1.894,11.937,1.054,23.318,3.464,34.278,1.322,6.015,5.423,8.915,6.613,15.724,2.364,13.519-8.635,22.513-18.265,24.529-14.312,3-23.592-7.917-27.4-16.982-7.074-16.845-5.76-38.053-9.133-59.75q-1.26-26.1-2.519-52.2l-38.106-2.2-9.448,61.323c-4.807,24.008-6.712,48.74-14.8,69.185C52.2,455.888,43.579,471.79,25.7,467.484c-9.879-2.379-20.742-12.251-17.321-26.416,1.828-7.565,6.838-11.222,9.133-18.868,5.34-17.794,6.566-37.039,10.392-56.291l6.613-42.769C20.815,333.333-4.041,325.808,1.14,304.271c3.212-13.352,24.49-26.422,40.31-27.359,3.857-31.67,9.116-64.138,15.746-94.343C65.553,144.5,71.549,107.152,84.908,74.7c6-14.581,19.035-47.68,41.57-43.712,26.4,4.648,24.315,32.8,28.657,59.751q1.733,27.2,3.465,54.4,0.156,8.805.314,17.611Q160.489,219.514,162.064,276.283ZM1119.1,41.683c15.89-.391,30.65,10.322,26.46,27.988-1.85,7.784-6.23,9.81-10.4,14.78q-4.56,13.678-9.13,27.36c-10.66,35.507-14.87,74.105-22.36,112.9q-2.355,19.18-4.72,38.366-1.11,17.451-2.21,34.907v22.642c2.13,13.141,8.14,23.3-.63,34.592-13.26,17.084-37.95,7.226-47.86-5.346-17.36-22.008-27.33-51.041-38.42-79.248-5.42-13.774-12.619-29.131-15.434-44.341h-0.315q-1.1,19.653-2.205,39.31v13.836c-1.537,10.037-1.228,24.45.315,34.278q1.1,16.666,2.2,33.335,2.2,11.32,4.408,22.642c1.716,5.532,4.606,9.748,5.666,16.039,2.31,13.689-12.2,27.94-26.135,25.472-24.2-4.284-25.605-34.187-29.918-58.492-2-11.3-1.248-24.329-3.149-36.48V305.529c-1.735-11.4-1.43-31.662.315-42.769q0.63-16.351,1.26-32.7c4.462-28.305,3.7-57.341,9.132-83.651,4.308-20.843,5.058-50.289,20.155-60.379,12.887-8.613,30.01-1.65,34.96,9.749,1.97,4.56.87,9.484,1.89,15.724q2.04,11.792,4.09,23.586c7.25,29.191,14.77,57.677,24.25,84.594,2.73,7.746,7.58,28.606,11.97,33.649q3.45-26.571,6.92-53.147c7-34.333,11.66-68.9,21.1-100.318,6.03-20.041,10.62-44.5,26.77-54.4C1111.37,43.443,1115.21,43.363,1119.1,41.683ZM391.01,100.805v46.857q-0.158,12.262-.315,24.529-1.26,31.129-2.519,62.266c19.627-5.921,62.421-7.253,57.63,19.5-1.715,9.576-7.832,15.828-17.321,17.611l-16.69-.315-25.509,3.459q-0.787,30.974-1.574,61.952c12.725,0.769,28.327,2.189,40.309-.629,5.019-1.18,7.843-4.662,13.542-5.66,12.105-2.12,24.676,10.4,22.359,22.642-4.7,24.851-50.656,28.294-81.249,23.271-11.426-1.876-23.888-1.3-31.492-6.918-13.395-9.891-10.125-40.43-9.762-62.9q3.149-81.912,6.3-163.842c3.123-20.248-6.553-60.054,1.26-72.644,7.784-12.545,28.735-9.12,48.5-9.12,35.469,0,92.245-.18,97.31,28.932,2.094,12.036-10.275,24.489-22.359,22.328-7.035-1.258-9.781-5.635-16.061-7.233C435.246,100.283,412.443,100.955,391.01,100.805ZM1209.8,64.326c80.21-1.093,121.21,43.256,138.25,105.664,7.61,27.863,9.32,70.558.63,98.431-6.04,19.36-15.91,35.666-27.08,50-24.68,31.667-63.05,54.182-106.45,66.983-21.61,6.376-51.89,8.861-59.52-11.636a25.86,25.86,0,0,1,.32-17.61,24.2,24.2,0,0,1,14.8-12.894c2.79-.836,7.97.234,9.76-1.258,9.52-8.095,9.9-37.058,12.6-52.832,2.64-15.4.87-32.925,3.46-49.373V178.481q-1.1-18.238-2.2-36.48-2.055-13.363-4.09-26.73c-23.47.6-36.42-20.7-21.73-39,5.77-7.194,19.03-9.009,29.91-11.007Zm-672.037,2.2c33.271-.051,23.5,31.1,28.342,58.493,6.7,37.913,13.046,71.516,25.509,102.833,5.264,13.229,10.633,27.286,17.635,39.31l8.818,16.038,0.945-.629,18.58-27.988a497.54,497.54,0,0,0,33.381-62.266,636.171,636.171,0,0,0,25.194-66.67l7.243-27.359q1.575-7.547,3.149-15.095c4.531-11.463,20.785-20.17,34.641-11.636,5.59,3.443,9.339,9.626,10.708,17.3,0.972,5.446-1.193,10.484-2.205,14.466-3.675,14.459-6.41,27.935-10.707,41.511a586.415,586.415,0,0,1-62.984,135.539c-6.83,10.874-13.825,21.219-21.1,31.448l-8.818,11.95,0.944,0.943c4.828,9.957,26.81,28.52,36.531,34.593,6.611,4.129,15.475,5.9,20.155,11.95,5.263,6.8,6.61,19.2,1.575,27.359-6.6,10.7-21.215,12.517-34.012,6.919-20.049-8.771-43.159-28.509-55.426-45.285l-3.149,2.83c-2.741,5.628-10.628,11.232-15.431,15.1-13.158,10.583-24.885,22.291-41.884,29.246-14.192,5.807-27.705-1.518-32.122-12.264-3.371-8.2-.639-18.3,3.464-23.586,5.339-6.872,16.8-9.734,23.934-14.78,13.023-9.206,27.176-21.732,36.531-34.593l-8.818-14.466a354.448,354.448,0,0,1-20.155-39c-16.026-36.433-27.24-75.222-35.9-119.815-2.5-12.87-8.638-56.049-3.779-67.927C522.333,71.753,528.524,70.542,537.763,66.527ZM879.135,300.5q1.26,20.911,2.519,41.826l1.89,18.239c1.07,3.953,4.16,6.942,5.039,11.951,2.48,14.139-9.117,23.036-19.525,24.843-10.43,1.811-17.859-4.862-21.73-10.063-11.7-15.72-12.453-59.224-12.6-86.167l-17.321-1.258q-3.148,20.283-6.3,40.568c-4.21,21-5.155,44.43-14.8,60.065-4,6.479-11.8,15.435-23.934,13.208-10.314-1.893-22.134-10.653-19.525-24.844,1.034-5.617,3.828-8.373,5.984-12.264q1.573-5.975,3.149-11.95l9.133-54.405c-14.745.316-27.875-11.682-21.415-27.359,4-9.7,16.537-18.392,28.343-20.127l9.448-56.92c7.395-34.023,12.332-66.993,24.563-95.286C817.1,98.89,827.869,76.09,846.7,79.421c22.872,4.046,22.32,24.763,26.139,48.114,2.7,16.534.127,35.028,2.834,52.518q1.1,39.934,2.2,79.877c4.3-.985,6.339-4.147,10.078-5.661,9.042-3.66,19.3.941,23.3,6.29C927.151,281.787,897.828,299.276,879.135,300.5Zm530.005-4.4c-4.57.156-9.29,1.286-13.54,0-10.87-3.294-19.46-18.155-11.33-30.5,5.45-8.3,13.69-7.1,24.87-10.064q-0.63-48.109-1.26-96.23c-1.06-6.923,1.5-26.635-1.88-30.189-3.3-1.666-6.44-2.305-9.14-4.4-10.65-8.279-7.28-26.6,2.84-32.705,8.38-5.06,22.28-3.8,33.69-5.661l19.84,0.629c7.74,1.29,14.47,1.1,21.42,2.83,19.73,4.9,36.51,12.246,50.7,22.642a104.92,104.92,0,0,1,27.71,30.819,88.653,88.653,0,0,1,8.51,20.756c4.92,17.514,1.42,38.454-4.41,51.888-13.79,31.737-49.12,56.936-85.03,66.355q11.49,18.395,22.99,36.794c15.61,26,29.38,53.3,45.35,78.619q3.3,5.031,6.61,10.063l3.78,2.2c5.39,4.051,9.56,13.518,6.3,22.328-1.42,3.817-3.33,7.219-6.3,9.434-13.34,9.951-28.79-.905-35.59-9.748-14.96-19.456-25.65-42.492-38.42-64.154q-10.86-18.865-21.73-37.737h-0.31c0.3,24.412-3.18,63.74-16.69,74.217-7.04,5.456-19.12,8.227-28.35,2.515-5.59-3.461-12.6-12.135-10.7-22.642,0.95-5.281,3.98-8.384,5.04-12.893C1409.14,349.794,1409,320.917,1409.14,296.1ZM1648.8,134.454v46.857q-0.165,12.262-.32,24.529-1.26,31.129-2.52,62.266c19.63-5.921,62.43-7.253,57.63,19.5-1.71,9.576-7.83,15.828-17.32,17.611l-16.69-.315-25.51,3.459q-0.78,30.974-1.57,61.952c12.73,0.769,28.33,2.189,40.31-.629,5.02-1.18,7.84-4.662,13.54-5.66,12.11-2.12,24.68,10.4,22.36,22.642-4.7,24.851-50.66,28.294-81.25,23.271-11.43-1.876-23.89-1.3-31.49-6.918-13.4-9.895-10.13-40.421-9.76-62.9q3.15-81.912,6.29-163.842c3.13-20.248-6.55-60.054,1.26-72.644,7.79-12.545,28.74-9.12,48.5-9.12,35.47,0,92.25-.18,97.31,28.932,2.1,12.036-10.27,24.489-22.36,22.328-7.01-1.254-9.79-5.637-16.06-7.233C1693.03,133.932,1670.23,134.6,1648.8,134.454Zm-411.29-21.07q1.74,12.892,3.47,25.787,0.945,13.992,1.89,27.988,0.15,10.692.31,21.385v38.995q-0.63,21.068-1.26,42.14-1.1,12.735-2.2,25.472-2.52,16.352-5.04,32.706h0.31c32.22-15.34,59.37-40.323,70.23-77.047,4.53-15.317,3.58-39.584.32-55.662-7.22-35.55-18.27-57.639-45.04-73.273C1254.28,118.238,1246.09,114.3,1237.51,113.384Zm216.04,13.522c0.23,38.136,2.15,78.865,2.2,118.558,22.71-3.8,54.57-24.856,63.62-42.454,4.41-8.583,6.33-22.516,2.2-33.02C1511.52,144.415,1485.14,131.075,1453.55,126.906ZM117.66,276.6q-2.047-72.007-4.094-144.03l-0.63.314-8.188,36.48q-5.039,28.3-10.077,56.605L86.8,274.71Zm715.812-15.724q-0.787-26.413-1.575-52.832-4.251,26.1-8.5,52.2Z"/>
</svg>
