<svg xmlns="http://www.w3.org/2000/svg" width="1292" height="480" viewBox="0 0 1292 480">
  <defs>
    <style>
      .cls-1 {
        fill: #fff;
        fill-rule: evenodd;
      }
    </style>
  </defs>
  <path id="WM_Police_-_Aurélie_1" class="cls-1" d="M911.549,0.455c27.38-.235,24,18.137,27.542,41.505v59.248q-3.008,64.152-6.015,128.317-2.058,38.016-4.115,76.04-0.792,18.057-1.583,36.118l-0.633,19.961c-3.251,21.6-.367,47.9,1.582,67.8l49.385,5.069L1013.8,436.1c10.44,1.577,25.71,1.948,36.41.316,11.63-1.774,22.53.046,33.24-1.9q7.275-1.584,14.56-3.168c4.42-1.743,6.9-5.6,12.98-6.653,14.16-2.453,26.01,11.785,21.84,25.663-6.53,21.708-35.16,21.545-60.15,25.347-15.25,2.319-44.88,3.045-60.78.633l-20.892-.633-50.651-4.436c-19.835-3.366-40.649-3-56.665-10.139-16.305-7.269-13.324-24.224-3.166-35.168-0.308-21.2-3.9-46.63-.633-68.436l0.633-19.327q0.633-14.572,1.266-29.148,0.949-18.534,1.9-37.07,1.74-31.2,3.482-62.416,2.373-50.529,4.748-101.069,0.159-14.415.317-28.832V45.445c-1.413-9.574-2.994-23.368.316-31.05C896.36,5.565,902.611,4.385,911.549.455Zm-114.913,33.9c8.9-.175,16.924,7.863,11.713,16.792-3.233,5.538-9.529,4.713-15.829,7.287-8.81,3.6-17.235,24.141-29.757,14.257-6.048-4.774-3.171-12.976.316-17.743a51.256,51.256,0,0,1,23.743-18.376Zm-633.768,252.2c10.576-.771,14.8-5.941,21.843-9.189,11.053-5.094,22.674.946,26.908,8.555,13.688,24.6-27.074,40.541-47.485,40.871q1.425,27.563,2.849,55.129c1.9,12.027,1.06,23.493,3.482,34.535,1.33,6.06,5.452,8.981,6.648,15.842,2.376,13.62-8.68,22.681-18.361,24.712-14.386,3.02-23.715-7.976-27.541-17.108-7.111-16.972-5.79-38.339-9.18-60.2q-1.266-26.293-2.533-52.594l-38.3-2.218-9.5,61.783c-4.832,24.187-6.747,49.105-14.879,69.7-4.393,11.128-13.055,27.149-31.024,22.812-9.931-2.4-20.851-12.343-17.411-26.614,1.837-7.622,6.874-11.307,9.181-19.01,5.368-17.927,6.6-37.316,10.447-56.713l6.648-43.089C20.88,344.032-4.106,336.451,1.1,314.753,4.331,301.3,25.72,288.132,41.623,287.188c3.877-31.9,9.156-64.621,15.828-95.049,8.411-38.358,14.425-75.982,27.858-108.674,6.033-14.683,19.132-48.051,41.787-44.04,26.546,4.7,24.429,33.035,28.807,60.2q1.742,27.4,3.483,54.812,0.158,8.871.316,17.743Q161.285,229.361,162.868,286.555Zm227.3-207.526c21.695-.222,25.96,13.136,25.959,35.169q-0.159,9.188-.317,18.376v24.079q-0.95,36.275-1.9,72.555-2.375,57.816-4.749,115.644c-0.041,16.95-3.926,63.291,2.533,74.139,3.889,1.559,6.177,5.088,8.23,8.554,9.659,16.3-2.891,32.22-17.727,34.852-6.525,1.157-12.653-1.525-16.462-3.486-20.564-10.584-19.066-29.2-23.742-55.445l-0.633.317c-2.037,4.9-6.593,8.818-10.131,12.356-22.088,22.09-58.672,20-80.408-1.267-21.492-21.03-29.162-50.353-35.772-86.812q-1.107-13.306-2.216-26.614c-1.968-12.984-3.049-39.455-.95-53.228V235.861q1.425-25.026,2.85-50.059,1.107-21.859,2.216-43.723-1.108-4.435-2.216-8.871c-2.314-13.449,8.423-22.719,17.411-25.347,5.026-1.47,11.159-.268,14.878,1.267,14.817,6.115,19.49,24.691,16.145,46.575L282.53,172.5q-1.423,24.552-2.849,49.109-0.474,14.256-.95,28.515v26.614q0.318,11.246.634,22.5c2.561,16.463,3.062,32.686,6.964,46.891,4.357,15.862,9.783,38.509,28.808,39.287,14.041-9.181,19.57-32.02,25.008-49.742,10.659-34.735,13.9-74,20.894-113.743q2.216-23.284,4.432-46.575,1.741-28.986,3.482-57.98c1.389-8.792-.718-18.055,2.216-24.713C374.945,84.086,381.265,82.74,390.163,79.029Zm92.754,227.486c-4.595.158-9.346,1.3-13.612,0-10.928-3.319-19.56-18.29-11.4-30.733,5.484-8.36,13.77-7.152,25.008-10.138q-0.633-48.471-1.266-96.951c-1.066-6.976,1.5-26.835-1.9-30.416-3.315-1.678-6.468-2.322-9.181-4.436-10.706-8.341-7.318-26.8,2.849-32.95,8.429-5.1,22.4-3.825,33.873-5.7l19.944,0.634c7.775,1.3,14.54,1.112,21.526,2.852,19.836,4.939,36.7,12.337,50.968,22.812a105.7,105.7,0,0,1,27.858,31.049,89.023,89.023,0,0,1,8.547,20.911c4.939,17.647,1.436,38.731-4.432,52.278-13.851,31.974-49.379,57.363-85.473,66.851l23.109,37.07c15.691,26.19,29.536,53.7,45.586,79.208l6.648,10.139,3.8,2.217c5.417,4.081,9.614,13.62,6.331,22.495-1.423,3.847-3.348,7.274-6.331,9.505-13.405,10.026-28.937-.911-35.772-9.821-15.038-19.6-25.789-42.81-38.622-64.634q-10.92-19.008-21.843-38.02H528.82c0.3,24.594-3.191,64.217-16.778,74.772-7.077,5.5-19.219,8.289-28.491,2.535-5.621-3.488-12.67-12.227-10.764-22.812,0.958-5.32,4-8.447,5.065-12.99C482.908,360.616,482.775,331.523,482.917,306.515ZM1034.69,105.326c34.51-.789,42.97,35.849,12.98,44.991-19.21,5.855-45.41-8.764-37.03-29.149C1015.08,110.346,1023.51,109.718,1034.69,105.326ZM741.553,151.584v47.208q-0.159,12.355-.317,24.713-1.266,31.363-2.532,62.733c19.729-5.966,62.748-7.308,57.932,19.643-1.724,9.648-7.874,15.947-17.412,17.743l-16.778-.317L736.8,326.792q-0.79,31.206-1.583,62.416c12.793,0.775,28.477,2.2,40.521-.633,5.045-1.189,7.884-4.7,13.613-5.7,12.168-2.136,24.8,10.479,22.476,22.812-4.729,25.037-50.921,28.506-81.675,23.445-11.485-1.89-24.013-1.313-31.656-6.97-13.467-9.967-10.178-40.731-9.814-63.367q3.165-82.526,6.331-165.069c3.139-20.4-6.586-60.5,1.267-73.189,7.825-12.639,28.886-9.188,48.751-9.188,35.655,0,92.727-.181,97.819,29.149,2.106,12.126-10.329,24.672-22.476,22.5-7.071-1.268-9.832-5.677-16.145-7.287C786.012,151.057,763.11,151.735,741.553,151.584Zm449.207,0v47.208q-0.15,12.355-.31,24.713-1.275,31.363-2.54,62.733c19.73-5.966,62.75-7.308,57.93,19.643-1.72,9.648-7.87,15.947-17.41,17.743l-16.77-.317-25.65,3.485q-0.78,31.206-1.58,62.416c12.79,0.775,28.48,2.2,40.52-.633,5.05-1.189,7.88-4.7,13.61-5.7,12.17-2.136,24.81,10.479,22.48,22.812-4.73,25.037-50.92,28.506-81.67,23.445-11.49-1.89-24.02-1.313-31.66-6.97-13.47-9.967-10.18-40.731-9.81-63.367q3.165-82.526,6.33-165.069c3.14-20.4-6.59-60.5,1.26-73.189,7.83-12.639,28.89-9.188,48.75-9.188,35.66,0,92.73-.181,97.82,29.149,2.11,12.126-10.33,24.672-22.47,22.5-7.07-1.268-9.83-5.677-16.15-7.287C1235.22,151.057,1212.32,151.735,1190.76,151.584ZM527.553,136.059c0.231,38.422,2.161,79.456,2.216,119.446,22.826-3.831,54.853-25.042,63.947-42.772,4.435-8.648,6.366-22.685,2.216-33.268C585.828,153.7,559.314,140.259,527.553,136.059ZM118.232,286.871q-2.058-72.547-4.116-145.109l-0.633.317-8.23,36.753q-5.065,28.512-10.131,57.029L87.208,284.97Zm917.1-124.2c35.71-.276,22.75,34.691,27.22,64.951q0.315,18.216.64,36.435-0.165,13.782-.32,27.565-0.165,13.147-.32,26.3c-3.6,23.549-1.61,46.882-7.28,67.485-3.51,12.763-11.92,31.8-30.39,28.515-10.91-1.94-23.08-11.189-20.58-25.98,1.3-7.671,5.34-11.462,6.97-19.01,3.49-16.16,1.77-34.356,4.43-51.96q0.165-12.039.32-24.08,0.15-14.256.31-28.515-0.315-18.532-.63-37.069v-12.04c-1.9-12.812-3.07-33.222,2.22-41.822C1022.02,166.768,1027.57,165.956,1035.33,162.673Z"/>
</svg>
