<svg xmlns="http://www.w3.org/2000/svg" width="1203" height="409" viewBox="0 0 1203 409">
  <defs>
    <style>
      .cls-1 {
        fill: #fff;
        fill-rule: evenodd;
      }
    </style>
  </defs>
  <path id="WM_Police_-_Océane_1" class="cls-1" d="M595.01-.043c8.748-.173,16.607,7.8,11.492,16.658-3.171,5.494-9.349,4.676-15.53,7.229-8.644,3.571-16.91,23.949-29.2,14.144-5.934-4.736-3.111-12.873.311-17.6a50.365,50.365,0,0,1,23.295-18.23ZM137.186,0.9a106.38,106.38,0,0,1,98.771,62.548c35.371,80.266,26.19,222.865-14.6,288.852-8.006,12.952-16.681,24.031-28.576,33-17.862,13.472-32.517,18.379-59.945,22.944l-18.326.629c-8.543-1.421-16.52-1.743-23.916-4.086C54.9,393.48,28.164,368.313,14.5,334.7c-25.467-62.648-13.032-161.341,5.28-221.59,5.934-19.524,11.127-38.419,20.81-54.061,13.993-22.605,34.4-40.906,60.567-51.233C108.7,4.837,117.275,3.469,126,1.842Zm870.3,11.315c15.67-.391,30.23,10.316,26.09,27.974-1.83,7.78-6.14,9.805-10.25,14.773q-4.5,13.671-9.01,27.345c-10.51,35.489-14.668,74.066-22.053,112.838q-2.328,19.17-4.659,38.345-1.086,17.444-2.174,34.889v22.63c2.1,13.135,8.023,23.293-.621,34.575-13.087,17.082-37.432,7.222-47.211-5.344-17.117-22-26.948-51.014-37.893-79.206-5.345-13.767-12.443-29.116-15.22-44.318h-0.31Q883.092,216.358,882,236v13.83c-1.516,10.031-1.211,24.436.311,34.26q1.087,16.656,2.174,33.316,2.175,11.314,4.349,22.631c1.694,5.529,4.545,9.743,5.59,16.03C896.7,369.753,882.4,384,868.649,381.53c-23.871-4.282-25.254-34.17-29.507-58.462-1.979-11.3-1.232-24.315-3.106-36.46V275.921c-1.712-11.395-1.411-31.644.31-42.746q0.621-16.343,1.243-32.688c4.4-28.29,3.644-57.311,9.007-83.607,4.249-20.832,4.988-50.262,19.878-60.347,13.821-9.361,31.364-.711,35.409,12.258q1.242,12.1,2.485,24.2c7.242,33.786,15.525,65.763,26.09,96.179,2.747,7.907,7.7,29.455,12.113,34.574q3.417-26.558,6.834-53.119c6.9-34.315,11.5-68.863,20.81-100.265,5.939-20.03,10.474-44.478,26.4-54.376C999.855,13.973,1003.65,13.893,1007.49,12.215Zm-867.819,35.2c-6.09,2.375-14.858,1.512-20.81,3.458-14.936,4.882-26.559,15.559-35.1,27.031C71.042,95,65.513,119.444,59.536,143.282,46.939,193.531,35.55,284.249,62.642,328.1c11.458,18.545,28.2,29.98,54.044,34.26,22.242,3.683,43.167-8.97,53.424-18.23,10.825-9.773,17.027-24.573,22.984-39.289,19.5-48.163,26.731-141.331,9.318-198.959-5.089-16.841-11.22-33.626-23.3-43.375C169.721,54.918,155.983,47.491,139.671,47.418Zm634.555,224.1q1.242,20.9,2.485,41.8,0.931,9.114,1.864,18.23c1.055,3.951,4.1,6.938,4.969,11.944,2.447,14.132-8.992,23.025-19.257,24.831-10.287,1.809-17.613-4.859-21.431-10.058-11.539-15.712-12.283-59.193-12.424-86.121l-17.083-1.258q-3.106,20.271-6.212,40.547c-4.152,20.992-5.084,44.406-14.6,60.033-3.943,6.476-11.636,15.427-23.606,13.2-10.173-1.892-21.831-10.648-19.257-24.831,1.019-5.614,3.775-8.368,5.9-12.258l3.106-11.944q4.5-27.184,9.008-54.375c-14.537.313-27.494-11.673-21.121-27.345,3.953-9.722,16.288-18.379,27.954-20.116q4.658-28.443,9.318-56.89c7.294-34.006,12.163-66.958,24.227-95.237,4.973-11.657,15.6-34.446,34.166-31.117,22.558,4.044,22.013,24.75,25.779,48.09,2.667,16.525.126,35.009,2.8,52.49q1.086,39.914,2.174,79.835c3.828-.887,5.392-3.513,8.386-5.029,9.775-4.948,21.229.448,25.469,6.915C820.69,253.982,791.649,270.368,774.226,271.521ZM1103.15,106.194v46.832q-0.15,12.256-.31,24.516-1.245,31.114-2.48,62.234c19.35-5.918,61.56-7.25,56.84,19.487-1.7,9.571-7.73,15.819-17.09,17.6l-16.46-.314-25.16,3.457q-0.78,30.957-1.55,61.92c12.55,0.768,27.94,2.187,39.76-.629,4.95-1.179,7.73-4.66,13.35-5.658,11.94-2.118,24.34,10.4,22.05,22.631-4.64,24.838-49.96,28.279-80.13,23.259-11.27-1.876-23.56-1.3-31.06-6.915-13.21-9.887-9.99-40.406-9.63-62.862q3.1-81.87,6.21-163.756c3.08-20.238-6.46-60.022,1.25-72.606,7.67-12.539,28.34-9.115,47.83-9.115,34.98,0,90.98-.18,95.97,28.917,2.07,12.029-10.13,24.476-22.05,22.316-6.94-1.258-9.65-5.632-15.84-7.229C1146.78,105.672,1124.29,106.344,1103.15,106.194ZM379.765,66.276c64.71-.755,74.444,58.813,63.051,122.267q-1.242,12.885-2.484,25.774c2.959,10.613,3.834,19.113-4.97,25.773-16.594,12.552-38.047-5.3-34.787-26.4l1.863-20.116c4.942-28.3,16.032-99.455-27.643-86.121l-10.56,5.029c-9.171,6.154-15.488,15.042-21.432,24.516-22.993,36.648-36.269,113.778-18.015,166.27,5.216,15,11.584,28.137,24.227,35.518,19.5,11.385,45.576-1.929,49.386-18.859,1.211-5.386-5.647-11.943-1.553-21.688,4.211-10.025,18.695-15.422,29.817-8.486,12.955,8.079,13.8,32.143,7.455,48.4-9.568,24.518-28.356,37.679-57.151,43.061-4.676.874-11.919,1.885-17.7,0.942-13.944-2.272-24.5-5.082-34.166-11.315-42.4-27.348-58.307-110.672-43.173-180.1,10.2-46.812,26.82-90.207,61.5-112.209a85.031,85.031,0,0,1,23.917-10.372ZM539.1,108.394v46.832q-0.154,12.256-.31,24.516-1.244,31.115-2.485,62.234c19.357-5.918,61.565-7.25,56.84,19.487-1.692,9.571-7.725,15.819-17.083,17.6L559.6,278.75l-25.159,3.458q-0.775,30.955-1.553,61.919c12.551,0.768,27.94,2.187,39.757-.629,4.95-1.179,7.735-4.66,13.356-5.657,11.939-2.119,24.338,10.4,22.052,22.63-4.639,24.838-49.961,28.279-80.134,23.259-11.274-1.876-23.561-1.3-31.06-6.915-13.213-9.887-9.986-40.406-9.629-62.862q3.106-81.87,6.212-163.756c3.08-20.237-6.463-60.022,1.242-72.606,7.678-12.539,28.342-9.115,47.833-9.115,34.982,0,90.979-.18,95.975,28.917,2.066,12.029-10.134,24.476-22.052,22.316-6.939-1.257-9.647-5.632-15.841-7.229C582.731,107.873,560.241,108.544,539.1,108.394ZM729.189,231.918q-0.775-26.4-1.553-52.8l-8.386,52.175Z"/>
</svg>
