<svg xmlns="http://www.w3.org/2000/svg" width="2101" height="504" viewBox="0 0 2101 504">
  <defs>
    <style>
      .cls-1 {
        fill: #fff;
        fill-rule: evenodd;
      }
    </style>
  </defs>
  <path id="Compétences_1" data-name="Compétences 1" class="cls-1" d="M1100.23,51.047q-1.29,68.3-2.57,136.612v17.763c-1.08,5.03.5,11.6-.32,17.117-0.67,4.426-.22,10.217-0.33,15.179-0.11,5.418-.34,12.687-0.64,18.086-0.24,4.4.51,9.712-.32,13.564q-0.165,13.563-.32,27.129c-1.07,4.961-.64,11.83-0.64,17.117v6.136c-0.62,2.83.37,7.1-.33,10.335-0.54,2.522.32,6.442-.32,9.366-0.52,2.419.29,6.222-.32,9.043-1.96,9.029.32,19.8-1.61,28.743l-0.96,20.347c-1.07,4.893-.14,10.341-1.29,15.5-0.92,4.155-.56,8.857-1.6,13.241-3.26,13.611-4.16,24.195-12.54,32.619-3.79,3.815-12.65,10.487-21.86,8.4-12.76-2.9-18.02-8.372-20.89-21.315a18.393,18.393,0,0,1,0-7.428,30.318,30.318,0,0,1,3.86-9.043c0.81-1.166,2.69-2.208,3.21-3.553,1.33-3.446,1.11-8.982,1.93-12.6q1.29-15.986,2.57-31.973,0.165-6.136.32-12.273c2.02-9.349-.42-21.248,1.61-30.681,0.65-3.028-.24-7.063.32-9.689,0.7-3.234-.29-7.5.32-10.335,0.74-3.439-.33-7.944.32-10.98,0.83-3.851-.42-8.825.33-12.273q0.15-13.4.32-26.806,0.48-17.437.96-34.879c0-3.835-.38-8.668.32-11.95,1.14-5.291-.73-11.906.32-16.794V187.013q1.29-68.46,2.58-136.935l-27.33-.323c-4.08,0-9.33-.5-12.85.323-3.1.724-7.26-.311-9.97,0.323H996.4c-3.446.795-7.924,0.477-11.251,1.292l-4.178.323c-4.077,1.037-8.074,1.906-11.251,3.553l-3.857,1.292c-0.255.4,0.583,3.127,0.321,4.2a14.683,14.683,0,0,1-3.214,6.459c-3.993,4.012-13.135,3.735-18,6.782-5.319,3.331-8.811,11.908-13.822,14.21-7.755,3.563-18.624-3.249-16.393-12.273,2.114-8.551,12.524-17.751,19.286-21.961,2.065-1.286,9.7-3.463,10.608-5.167-4.125-3.269-5.373-13.624-2.893-19.7,4.608-11.292,17.169-14.246,29.894-17.44,7.472-1.875,15.711-.91,23.465-2.584,1.992-.43,4.837.02,6.432-0.323h10.6c4.43-.956,10.74-0.323,15.75-0.323,5.41,0,12.22-.715,17.04.323l61.4,0.969c8.96,0,17.54.04,26.03,0h13.5c1.9-.411,5.1.175,7.4-0.323,8.65-1.873,18.04-.7,26.03-2.907,2.13-.588,4.96-1,7.07-1.938,1.03-.457,1.97-1.687,2.9-2.261,4.32-2.682,12.57-4.035,18.32-1.615,8.66,3.644,17.17,16.234,10.93,28.421-2.09,4.071-6.17,7.642-9.97,10.012C1185.79,53.619,1136.49,50.988,1100.23,51.047Zm-986.5-5.49c39.9-.439,55.038,21.739,64.609,51.674q1.768,8.4,3.536,16.794,0.321,3.552.643,7.105c1.035,4.636.548,10.627,1.607,15.5v8.074c1.025,4.824,1.04,17.143,0,21.962q-0.16,7.911-.321,15.825c-2.391,11.007-.53,24.06-2.893,34.88q-0.16,3.552-.322,7.1c-1.251,5.708-.677,12.648-1.928,18.408v4.2c-0.618,2.839-1.646,12.914-.964,16.148,0.445,2.115,2.266,4.407,2.892,6.782,2.636,9.986-3.947,18.612-9.321,21.961-5.143,3.2-13.9,3.635-19.93.969-7.1-3.139-11.36-10.228-13.5-18.408-0.773-2.956.057-5.733-.643-9.043a24.273,24.273,0,0,1-.321-8.074q1.446-19.215,2.893-38.433c1.556-7.145.673-15.7,2.25-22.93v-4.521c1.067-5,.179-11.394,1.285-16.471v-8.72c1.016-4.845,1.046-17.126,0-21.961l-0.321-11.627c-1.461-6.645-1.56-14.065-3.214-20.024-2.627-9.456-5.068-21.272-13.179-24.868-1.885-.835-3.427-0.438-5.786-0.969a19.668,19.668,0,0,0-8.679.323,33.725,33.725,0,0,0-7.715,3.23C87.683,100.836,77.8,121.9,69.692,141.153c-5.035,11.958-8.641,25.291-12.858,38.432-2.188,6.818-2.951,14.23-4.822,20.993l-5.786,34.879-2.893,27.452c-0.666,3.047-.053,6.336-0.643,9.043q-0.161,5.975-.321,11.949c-0.557,2.628.318,6.655-.322,9.689-0.8,3.777-.321,9.225-0.321,13.565,0,4.131-.448,9.347.321,12.918v7.105l0.964,18.086c1.154,5.228.368,11.032,1.607,16.471,2.484,10.9,2.977,22.531,5.786,32.619,1.166,4.188,1.259,7.885,2.572,11.95,6.547,20.278,13.68,42.722,30.215,52.965,6.01,3.723,17.094,4,24.43,1.292,17.561-6.481,22.591-21.541,27-41.339,2.421-10.875-6.4-15.249-2.893-26.16,3.534-11,17.75-20.1,30.858-11.949,15.064,9.365,15.8,38.142,9.643,58.455-9,29.7-22.853,48.293-50.466,59.425-4.286,1.728-9.437,2.715-14.465,3.876l-6.429.323c-2.355.5-7.43,0.952-10.286,0.323l-11.572-1.938a83.355,83.355,0,0,1-24.751-12.6c-13.82-10.274-24.554-28.954-31.823-45.86-1.623-3.776-2.265-7.4-3.857-11.3-5.294-12.994-7.51-28.119-11.25-42.953L4.118,366.9l-2.25-24.868v-5.49c-1.058-4.966.516-10.985-.643-16.471-1.015-4.8-1.032-21.043,0-25.837l0.321-17.763c1.039-4.738-.145-10.15.964-15.179,2.522-11.431,1.649-24.526,4.179-35.525l1.286-10.981c2.415-9.979,3.455-20.846,6.107-30.358,0.947-3.4.927-6.383,1.929-9.689,3.181-10.5,5.679-21.463,9.322-31.327,7.09-19.2,13.768-36.691,23.787-52.643,9.739-15.507,24.358-31.75,41.787-39.4a104.064,104.064,0,0,1,15.107-4.844C108.279,45.926,111.865,46.733,113.729,45.557ZM1501.06,55.568c13.4-.271,20.3,4.889,24.76,13.564,1.75,3.422,3.73,9.661,2.25,15.179a30.912,30.912,0,0,1-4.5,10.012c-1.55,2.134-5.24,3.535-6.43,5.813-1.3,2.489-1.48,5.064-2.57,7.751-4.84,11.826-7.63,25.79-11.26,38.755-5.12,18.332-6.84,37.794-11.57,56.518-1.6,6.359-1.76,12.965-3.21,19.055-2.05,8.572-1.94,17.488-3.86,25.837q-2.415,20.667-4.82,41.339l-0.96,16.471c-0.84,3.872.29,8.57-.65,12.918-1.32,6.172-.68,23.118.65,28.744,1.03,4.421,2.82,7.6,3.85,12.272,1.85,8.324-4.8,18.425-8.68,21.316a33.891,33.891,0,0,1-9.32,4.844c-18.8,6.1-32.36-9.116-39.21-18.732-16.32-22.88-26.23-51.881-37.61-79.771-3.93-9.632-6.74-19.782-10.29-29.389-1.31-3.539-2.07-10.272-4.18-12.919q-0.96,15.663-1.93,31.327-0.15,11.626-.32,23.254c-0.9,4.276-.92,18.02,0,22.284,0.88,4.054-.47,9.266.32,12.918v7.428q1.125,13.4,2.25,26.806c1.58,6.974,1.76,14.389,3.86,20.992,2.09,6.548,4.87,11.636,6.43,18.732,0.83,3.755-.71,7.977-1.61,10.335-3.53,9.29-9.07,13.086-19.6,15.5a15.327,15.327,0,0,1-5.47.323c-21.84-4.929-23.6-25.917-28.93-47.152-1.1-4.387-.58-8.38-1.61-12.919-1.69-7.531-.86-16.635-2.57-24.545-0.91-4.245.21-8.975-.64-12.918V326.532c-1.05-4.943-.32-11.9-0.32-17.44,0-4.429-.52-10.027.32-13.887v-9.043l0.96-26.16c1.39-6.363.25-14.08,1.61-20.346v-4.522c1.3-5.923.24-12.893,1.61-19.054,0.89-4.005.3-8.553,1.28-12.919,2.61-11.616,2.18-24.568,4.83-35.848l1.92-14.211c2.86-11.219,4.34-23.206,8.04-33.264,2.57-6.981,4.56-13.743,9.97-17.763,12.93-9.614,29.05-4.38,36,7.105,1.55,2.567,2.15,6.079,2.89,9.366,0.11,3.875.21,7.751,0.32,11.626,2.76,12,3.84,23.751,7.07,35.2,8.14,28.826,14.93,58.772,25.72,85.262,3.04,7.468,4.71,15.036,7.71,22.284h0.32v-2.584c1.65-2.78,1.02-12.189,1.93-16.148q2.895-20.022,5.79-40.047c2.83-11.353,3.15-23.393,6.11-34.88,1.59-6.186,2.04-12.924,3.85-19.377,5.02-17.888,7.94-36.743,13.5-53.612,4.84-14.686,8.51-28.643,16.72-39.724,3.03-4.091,8.47-7.662,13.5-9.689Q1498.175,56.214,1501.06,55.568ZM1637.03,83.02c36.01-.408,52.78,14.437,63.01,39.724,2.67,6.612,2.76,13.45,4.5,21.316,1.31,5.958,2.42,21.668.96,28.42v6.459c-2.1,9.693-1.12,20.45-3.21,29.713q-0.975,9.365-1.93,18.731c-0.39,1.754-1.37,5.423-.65,7.751,0.57,1.819,2.03,3.956,2.58,6.137,2.14,8.59-3.21,17.065-7.72,20.346a24.979,24.979,0,0,1-6.11,3.23c-11.67,3.866-21.8-3.745-26.03-10.658-1.45-2.356-1.69-4.75-2.57-7.751-0.8-2.7-2.08-8.287-1.29-11.949,1.68-7.828.54-15.849,2.25-23.577,1.1-4.967.74-10.47,1.93-15.825,0.92-4.164.3-8.91,1.28-13.564,2.74-12.9,1.11-34.284-2.57-44.246-1.5-4.073-2.91-8.027-6.1-10.334-4.86-3.512-16.72-3.81-23.47-1.615a46.466,46.466,0,0,0-10.93,5.167c-9.54,6.361-15.9,15.485-22.18,25.191-5.22,8.075-8.6,16.849-12.53,26.483-20.19,49.439-24.43,154.662,18.96,180.858,2.86,1.725,5.94,1.978,9.64,2.906a33.934,33.934,0,0,0,13.51,0c3.03-.7,5.33-0.408,8.03-1.291a29.194,29.194,0,0,0,19.93-20.993c0.91-3.388-1.69-5.628-2.57-8.4-1.37-4.3-.53-10.388.96-13.887,4.45-10.448,19.16-16.038,30.86-8.72,13.61,8.515,14.63,32.8,7.72,49.736-6.8,16.66-19.1,30.671-35.36,37.786-4.91,2.147-9.53,3.183-15.11,4.845a75.589,75.589,0,0,1-21.22,2.583h-5.78c-3.22-.7-6.71-0.431-9.97-1.291a114.727,114.727,0,0,1-16.71-5.491c-25.66-11.26-40.64-38.455-49.82-66.53-3.63-11.09-4.35-23.242-7.08-35.525-1.11-5.027.14-9.922-.96-15.179-1.08-5.133-1.49-20.133-.32-25.514v-6.137l0.96-13.887c2.73-12.255,2.56-24.962,5.79-36.494,8.08-28.866,16.12-53.974,31.18-75.573,10.62-15.231,24.81-29.006,42.75-36.818,5.35-2.33,11.31-3.637,17.36-5.167C1631.34,83.4,1635.12,84.231,1637.03,83.02ZM602.639,89.479c18.152-.245,25.071,10.513,28.287,25.191,0.862,3.935-.6,8.394-1.286,11.3-1.087,4.588-.956,9.311-1.928,13.564-1.461,6.389-.478,12.566-1.929,19.055-2.358,10.546-1.2,22.837-3.536,33.588-0.9,4.169-.143,8.477-0.964,12.272-0.959,4.437-.084,9.158-0.964,13.242-1.392,6.453.05,13.813-1.286,20.023v5.49c-1.685,7.823.086,17.306-1.607,25.191q-0.483,17.6-.965,35.2c-0.71,3.33-.19,8.078-0.321,11.95-0.164,4.851-.321,10.789-0.322,16.148v8.4c-1.184,5.578-.311,14.063,0,19.7,0.34,6.141-.871,13.5.322,19.055,0.7,3.234-.287,7.5.321,10.335q0.16,6.782.322,13.564c1.881,8.744.565,18.269,2.571,26.806l1.929,9.366,2.571,2.26a32.4,32.4,0,0,1,4.5,9.043c4.2,13.247-6.076,25.017-14.144,28.421-7.744,3.267-17.342.843-22.822-2.584-11.425-7.144-14.58-18.933-18.322-33.911-1.113-4.456-.575-8.623-1.607-13.241-1.551-6.939-.7-15.4-2.25-22.607V400.49c-1.052-4.914.5-10.771-.643-16.148-0.823-3.854-.078-9.165-0.322-13.564-0.361-6.518-.321-14.274-0.321-21.316,0-50.309,2.344-98.782,5.786-145.655h-0.322v0.646c-1.855,2.1-2.357,5.274-3.857,7.751-3.537,5.845-6.067,12.445-9.322,18.732-6.826,13.187-13.2,26.8-19.286,40.693-3.18,7.258-7.429,14.694-10.608,21.961-5.554,12.7-7.751,19.138-22.5,22.93a21.481,21.481,0,0,1-12.215-.645c-5.88-2.48-10.708-8-13.179-13.888l-2.25-8.72c-4.493-11.055-7.53-23.682-10.929-35.848-1.344-4.81-1.96-9.679-3.215-14.211-0.463-1.674-.114-3.328-0.964-4.521q-4.5,39.236-9,78.479l-1.929,20.67c-1.219,5.4-.628,11.392-1.929,17.117-0.938,4.13-.583,8.785-1.607,13.241-2.356,10.259-2.565,21.65-5.143,31.327-1.2,4.49-1.533,8.393-3.214,12.273-4.258,9.83-17.636,20.847-32.466,14.533-7.645-3.255-17.813-14.269-14.464-27.129,0.791-3.04,2.588-5.546,3.535-8.074,1.152-3.074,1.2-6.956,1.929-10.011,1.865-7.83,1.47-16.222,3.214-23.9q0.162-2.584.322-5.168c2.5-10.966,1.722-23.543,4.179-34.557l0.642-9.043c1.871-8.354,1.348-18.113,3.215-26.482l0.321-5.814c1.808-8.011,1.04-17.312,2.893-25.513,1.151-5.093.684-10.739,1.929-16.148,1.1-4.8.736-10.049,1.929-15.18,2.623-11.282,2.757-23.863,5.464-34.879,0.946-3.851.635-7.165,1.607-10.981,4.816-18.891,7.481-42.648,20.894-52.643a32.224,32.224,0,0,1,9-4.521c12.042-3.859,23.192,5.151,27.644,11.3,5.657,7.818,5.3,20.867,8.036,31.65,2.172,8.554,2.548,17.836,4.822,26.805,3.863,15.245,5.744,31.866,9,47.153a1.17,1.17,0,0,0,.321-0.646c2.559-2.912,4.424-9.094,6.108-12.919,2.967-6.743,6.877-13.792,10.286-20.346,2.112-4.062,3.419-8.362,5.786-12.273,4.613-7.622,7.862-16.174,12.536-23.9,8.561-14.15,16.438-28.747,25.715-41.985A137.482,137.482,0,0,1,581.746,102.4l3.536-3.876c3.443-2.611,7.1-5.659,11.25-7.428C598.37,90.311,600.982,90.553,602.639,89.479ZM721.894,306.186q-0.16,6.135-.322,12.272c-0.01,3.737.365,8.44-.321,11.627-0.674,3.131.266,7.283-.322,10.012-1.023,4.751.287,9.9-.642,14.21v5.49c-1.142,5.233-.494,11.688-1.608,16.794q-0.321,4.843-.643,9.689c-2.295,10.232-2.884,20.661-6.428,29.066-3.5,8.291-8.06,13.014-16.715,16.148-2.258.818-6.409,2.1-9.965,1.292-10.4-2.357-15.894-6.761-19.608-15.825-0.991-2.42-2.53-6.942-1.607-10.98a41.246,41.246,0,0,1,2.25-7.752c0.838-1.832,2.3-3.161,2.893-5.49q1.285-10.011,2.572-20.023l0.321-7.751c0.612-2.815.35-6.837,0.964-9.689v-5.491c1-4.609-.45-10.118.643-15.179,1.173-5.429.6-13.387,0.643-19.377h-0.321c-2.614,1.683-10.915.893-13.5,0-8.472-2.928-18.289-12.289-14.143-25.191,2.384-7.42,7.747-12.414,15.429-14.533,3.307-.913,9.644-0.04,12.215-1.615,1.14-1.812.357-12.461,0.321-15.5-0.909-1.489-.321-5.612-0.321-7.751V229c-1.411-6.6-.322-16.865-0.322-24.222v-6.782c-1.407-6.575,1.114-16.227-.321-22.93-0.761-3.552.525-8.641-.322-12.6-0.43-2.009.2-5.338-.321-7.751a70.683,70.683,0,0,1-.964-10.657,21.05,21.05,0,0,1-15.751-12.6c-5.009-12.057,3.226-23.426,11.25-26.806,7.472-3.147,17.4-2.329,26.037-4.2h5.786c8.119-1.68,24.665,0,31.5,1.615,10.394,2.453,19.7,3.123,28.608,6.782,10.346,4.25,20.608,8.776,29.251,14.856,5.2,3.655,9.762,8.135,14.787,11.95,3.716,2.821,6.852,7.512,9.643,11.3,6.4,8.692,12.33,17.888,16.072,29.39,1.644,5.055,1.642,9.758,2.893,15.5,1.267,5.817,1.091,16.651-.322,22.284-1.792,7.148-3.413,13.82-6.107,20.024-12.831,29.548-40.465,47.792-70.074,60.716-6.738,2.941-13.637,5.233-21.215,7.751C730.132,303.848,726.087,305.6,721.894,306.186ZM2018.26,102.4c47.8-.639,69.88,23.9,79.72,61.362,6.69,25.484,1.08,61.034-9.64,77.188-3,4.517-6.71,8.736-11.9,10.98-12.77,5.524-23.98-.692-28.61-9.688-1.25-2.448-3.24-6.905-2.25-11.3,1.33-5.9,3.61-10.2,7.4-13.564,0.7-.624,2.31-0.907,2.89-1.615,0.11-.646.21-1.292,0.32-1.938,2.04-5.322,2.16-11.964,3.54-18.409,1.07-4.988-.38-15.656-1.29-19.377-3.1-12.742-5.74-22.1-15.43-28.1-18.94-11.734-50.88.193-63.32,9.366-12.38,9.131-25.43,32.947-18.97,56.518a82.453,82.453,0,0,0,14.47,28.744c1.34,1.783,3.66,3.174,5.46,4.521,4.14,3.094,8.38,6.571,12.86,9.366,6.17,3.852,12.71,6.579,19.29,10.012,26.68,13.922,55.16,24.932,71.36,49.413,6.67,10.084,11.89,21.611,11.89,38.432-0.11,3.122-.21,6.244-0.32,9.366-1.44,6.283-2.49,12.353-4.82,17.763-8.7,20.168-24.81,32.967-45.33,41.338-4.12,1.682-8.24,2.015-12.85,3.23-6.61,1.741-22.79,3.8-31.18,1.938-5.8-1.286-11.66-1.475-17.04-3.23-21.33-6.957-37.89-18.85-49.5-35.525-8.83-12.676-20.39-41.462-3.22-54.258,12.07-8.991,28.32-4.561,33.43,7.751,2.65,6.358.21,11.066-.32,16.794,2.23,2.393,4.33,7.2,6.43,10.012,5.71,7.636,16.51,13.571,27,16.471,4.71,1.3,12.57,2.163,18,.969,3.92-.861,7.11-0.244,10.61-1.292,11.04-3.3,19.68-8.445,24.75-17.763,2.76-5.075,5.06-14.024,2.57-21.638-6.85-20.962-35.54-30.364-54.32-40.047-12.51-6.45-25.72-12.758-36.97-20.67-4.36-3.069-8.05-7.178-12.21-10.334a42.214,42.214,0,0,1-8.04-7.752,125.877,125.877,0,0,1-18.64-34.556c-2.92-7.987-7.65-26.517-5.14-38.11q0.15-3.39.32-6.782c1.69-7.5,2.49-14.784,5.14-21.315,5.48-13.5,12.73-25.068,22.18-34.557,11.52-11.562,26.3-19.52,43.72-25.191,6.28-2.046,13.19-2.366,19.93-3.875C2012.62,102.508,2016.39,103.586,2018.26,102.4ZM298.878,104.335a82.854,82.854,0,0,1,29.252,4.522c28.757,9.654,44.41,26.147,55.609,53.288,3.445,8.351,4.983,17.764,7.393,27.129,2.167,8.422,1.233,17.714,3.214,26.483q0.16,6.619.322,13.241c1.181,5.473.84,21.945-.322,27.129l-0.321,9.043c-1.786,7.879-1.229,16.23-3.215,23.9-2.055,7.941-3.268,16-5.786,23.576-8.065,24.269-19.208,46.76-37.93,60.394-7.934,5.778-16.284,11.053-26.679,14.533-5.805,1.943-11.411,2.049-18,3.552-3.595.821-15.394,2-19.929,0.969-6.529-1.486-13.074-1.281-18.965-3.229-25.745-8.514-47.78-25.636-58.181-49.413-3.164-7.235-5.121-15.506-7.393-23.576q-1.446-8.235-2.893-16.471c-1.023-4.329-.342-9.073-1.285-13.242v-5.813a49.894,49.894,0,0,1,0-16.471l0.321-10.335c1.944-8.589,1.376-17.483,3.536-25.837,1.929-7.462,2.682-15.4,4.821-22.93,2.26-7.952,4.558-16.365,7.072-23.9,4.224-12.659,8.161-24.942,15.108-34.88,11.5-16.45,26.76-28.332,46.609-36.494,5.4-2.221,11.693-2.754,17.679-4.2Zm901.642,41.339c0.03,15.714.04,32.523,0,48.121q-0.165,12.6-.32,25.191-1.29,31.971-2.57,63.947h0.32c2.83-1.856,12.76-1.329,17.03-2.261,2.44-.531,5.46-0.027,8.36-0.646a31.255,31.255,0,0,1,10.29,0l6.1,0.323c6.77,1.677,11.22,5.1,14.15,10.658,1.37,2.612,3.64,7.188,2.57,11.949-2.29,10.154-7.64,15.75-17.68,18.086l-17.04-.323c-3.98.866-8.35,0.642-12.53,1.615a69.222,69.222,0,0,1-13.5,1.938c0.06,21.107-1.54,41.715-1.61,63.623,12.65,0.537,29.33,2.477,41.14-.646,5.09-1.345,8.1-4.519,13.83-5.813,10.75-2.433,20.02,8.069,22.18,14.856a18.61,18.61,0,0,1,.64,8.4c-3.91,16.815-17.88,19.993-34.72,23.9-3.24.753-6.89,0.5-9.96,0.969h-5.79c-6.28,1.337-22.79.622-28.61-.646l-7.07-.323c-10.14-2.259-21.79-1.924-28.93-7.105-9.24-6.711-10.28-22.123-10.28-38.11,0-5.232-.68-11.827.32-16.471V354.63c0.59-2.728-.36-6.881.32-10.012,0.48-2.215-.24-5.78.32-8.4,1.58-7.322-.28-16.267,1.29-23.576q0.15-7.266.32-14.533c1.96-9.107-.35-20.6,1.6-29.713v-7.428c1.1-5.08.79-12.155,0.97-17.44v-7.105c0.89-4.163.64-9.665,0.64-14.21v-5.167c0.74-3.448-.5-8.422.32-12.273,1.1-5.105.61-13.15,0.65-18.409,0.06-8.951.94-19.421-.32-27.774q-0.165-8.881-.33-17.763c-1.77-8.369-1.68-21.01,1.93-26.806,4.41-7.071,15.03-12.175,27.97-9.366h21.86c5.52,0,13.28-.451,18.32.646,2.6,0.567,6.15-.157,8.36.323,3.7,0.808,7.67-.065,10.92.646h4.5c4.69,1.037,10.34.892,14.79,1.938,4.02,0.945,7.48.559,11.25,1.615,14.93,4.181,27.37,8.862,30.86,24.545a13.318,13.318,0,0,1-.32,4.844c-2.16,9.152-5.4,13.738-13.5,16.794-2.03.767-5.71,2.052-9,1.292-7.54-1.738-9.89-5.6-16.4-7.428-5.88-1.651-12.32-.868-18.64-2.261-2.39-.527-5.93-0.44-8.36-0.969h-5.78c-1.8-.392-4.88.157-7.08-0.323-2.91-.637-7.28.4-10.6-0.323C1210.03,145.2,1204.74,145.706,1200.52,145.674Zm601.41,0c0.04,15.714.05,32.523,0,48.121q-0.15,12.6-.32,25.191-1.29,31.971-2.57,63.947h0.32c2.84-1.856,12.77-1.329,17.04-2.261,2.43-.531,5.45-0.027,8.36-0.646a31.2,31.2,0,0,1,10.28,0l6.11,0.323c6.76,1.677,11.22,5.1,14.14,10.658,1.38,2.612,3.65,7.188,2.57,11.949-2.29,10.154-7.64,15.75-17.68,18.086l-17.03-.323c-3.99.866-8.35,0.642-12.54,1.615a69.222,69.222,0,0,1-13.5,1.938c0.07,21.107-1.54,41.715-1.61,63.623,12.66,0.537,29.34,2.477,41.15-.646,5.09-1.345,8.1-4.519,13.82-5.813,10.75-2.433,20.02,8.069,22.18,14.856a18.61,18.61,0,0,1,.64,8.4c-3.91,16.815-17.88,19.993-34.71,23.9-3.25.753-6.89,0.5-9.97,0.969h-5.78c-6.29,1.337-22.8.622-28.61-.646l-7.07-.323c-10.15-2.259-21.8-1.924-28.93-7.105-9.24-6.711-10.29-22.123-10.29-38.11,0-5.232-.67-11.827.32-16.471V354.63c0.59-2.728-.35-6.881.32-10.012,0.48-2.215-.24-5.78.33-8.4,1.57-7.322-.29-16.267,1.28-23.576q0.165-7.266.32-14.533c1.96-9.107-.35-20.6,1.61-29.713v-7.428c1.09-5.08.79-12.155,0.96-17.44v-7.105c0.9-4.163.65-9.665,0.65-14.21v-5.167c0.74-3.448-.51-8.422.32-12.273,1.09-5.105.6-13.15,0.64-18.409,0.07-8.951.94-19.421-.32-27.774q-0.165-8.881-.32-17.763c-1.77-8.369-1.69-21.01,1.93-26.806,4.41-7.071,15.03-12.175,27.96-9.366h21.86c5.52,0,13.28-.451,18.32.646,2.61,0.567,6.16-.157,8.36.323,3.71,0.808,7.67-.065,10.93.646h4.5c4.69,1.037,10.34.892,14.78,1.938,4.02,0.945,7.49.559,11.26,1.615,14.93,4.181,27.36,8.862,30.85,24.545a13.318,13.318,0,0,1-.32,4.844c-2.16,9.152-5.4,13.738-13.5,16.794-2.03.767-5.7,2.052-9,1.292-7.53-1.738-9.89-5.6-16.39-7.428-5.88-1.651-12.33-.868-18.65-2.261-2.38-.527-5.92-0.44-8.35-0.969h-5.79c-1.79-.392-4.88.157-7.07-0.323-2.92-.637-7.29.4-10.61-0.323C1811.45,145.2,1806.15,145.706,1801.93,145.674Zm-901.316,1.292c0.034,15.732.045,32.512,0,48.121q-0.161,12.594-.321,25.191-1.285,31.971-2.571,63.946h0.321c2.836-1.855,12.766-1.328,17.036-2.26,2.434-.531,5.456-0.027,8.358-0.646a31.231,31.231,0,0,1,10.286,0l6.107,0.323c6.765,1.677,11.218,5.1,14.144,10.657,1.375,2.613,3.647,7.189,2.571,11.95C954.251,314.4,948.9,320,938.866,322.334l-17.036-.323c-4.035.873-8.324,0.636-12.537,1.615a69.277,69.277,0,0,1-13.5,1.937c0.068,21.108-1.537,41.716-1.607,63.624,12.655,0.537,29.331,2.477,41.144-.646,5.087-1.345,8.1-4.519,13.822-5.814,10.753-2.432,20.02,8.07,22.179,14.857a18.608,18.608,0,0,1,.643,8.4c-3.911,16.814-17.882,19.993-34.715,23.9-3.245.752-6.889,0.5-9.965,0.969h-5.786c-6.284,1.337-22.8.622-28.608-.646l-7.072-.323c-10.143-2.259-21.795-1.925-28.929-7.106-9.247-6.715-10.286-22.109-10.286-38.109,0-5.232-.676-11.828.321-16.471V355.922c0.588-2.729-.353-6.881.321-10.012,0.478-2.215-.242-5.78.322-8.4,1.577-7.322-.284-16.267,1.286-23.576l0.321-14.533c1.96-9.107-.349-20.595,1.607-29.713v-7.428c1.093-5.081.786-12.155,0.965-17.44v-7.105c0.894-4.163.642-9.665,0.642-14.21v-5.49c0.719-3.346-.483-8.2.322-11.95,1.1-5.106.6-13.15,0.643-18.409,0.068-8.951.942-19.421-.322-27.774l-0.321-17.763c-1.77-8.37-1.688-21.01,1.929-26.806,4.412-7.072,15.029-12.175,27.965-9.366h21.858c5.522,0,13.281-.451,18.322.646,2.605,0.567,6.153-.157,8.357.323,3.709,0.808,7.671-.066,10.929.646h4.5c4.687,1.037,10.341.892,14.787,1.938,4.585,1.078,8.552.718,12.857,1.938,14.17,4.012,25.926,9.269,29.256,24.222a13.525,13.525,0,0,1-.33,4.844c-2.15,9.152-5.4,13.738-13.5,16.794-2.032.767-5.7,2.052-9,1.292-7.536-1.738-9.889-5.6-16.393-7.428-5.879-1.651-12.328-.868-18.644-2.261-2.389-.527-5.926-0.44-8.357-0.969h-5.786c-1.8-.392-4.877.156-7.072-0.323-2.919-.637-7.288.4-10.607-0.323C910.13,146.489,904.837,147,900.614,146.966ZM719.322,141.8q0.644,12.594,1.286,25.191,0.482,48.278.964,96.565c6.605-.763,15.6-5.611,21.215-8.074,18.695-8.2,34.875-19.025,44.038-36.818,4.313-8.375,6.081-22.408,1.928-32.619C778.179,160.048,751.813,145.78,719.322,141.8ZM301.129,152.134c-1.517.935-4.527,0.2-6.429,0.646-3.186.754-6.687,1.335-9.643,2.583a50.915,50.915,0,0,0-21.216,17.763c-5.449,8.054-7.641,18.6-10.928,28.744-4.2,12.945-6.29,27.417-9.644,41.661-1.31,5.566-.362,11.238-1.607,17.117-2.034,9.606-.426,28.468,1.607,36.818,2.07,8.5,2.475,17.683,6.429,24.222,7.537,12.465,18.126,18.991,34.716,22.607a24.841,24.841,0,0,0,8.357-.323c3.488-.76,6.24-0.115,9.322-0.969a51.923,51.923,0,0,0,18.322-9.366c6.969-5.286,11.418-16.431,15.108-25.191,4.217-10.012,6.5-21.294,9.321-33.264q0.965-8.4,1.929-16.794v-4.845c0.468-2.216-.23-5.774.321-8.4,1.115-5.3.778-16.865-.321-21.961l-0.321-8.72c-1.44-6.573-1.561-13.991-3.215-20.024-0.708-2.584-.5-4.658-1.286-7.1-3.136-9.807-7.345-20.931-14.786-26.482A43.916,43.916,0,0,0,301.129,152.134Z"/>
</svg>
