<svg xmlns="http://www.w3.org/2000/svg" width="1183" height="532" viewBox="0 0 1183 532">
  <defs>
    <style>
      .cls-1 {
        fill: #fff;
        fill-rule: evenodd;
      }
    </style>
  </defs>
  <path id="Équipe_1" data-name="Équipe 1" class="cls-1" d="M125.489-.169c10.555-.1,17.317,9.63,10.966,18.456-4.15,5.768-16.429,5-22.576,8.742A46.7,46.7,0,0,0,101.3,38.361c-2.1,2.847-4.054,6.923-7.418,8.418-4.887,2.172-11.476.3-13.868-2.914-5-6.723-1.708-12.066,1.935-17.161A65.465,65.465,0,0,1,110.976,3.393L121.3,0.479C122.787,0.1,124.393.53,125.489-.169Zm-63.214,125.3c0.328,7.317.323,15.8,0.323,23.636,0,3.744.362,8.463-.323,11.656-1.027,4.79.618,10.833-.322,15.218v8.418c0,4.1.181,9.749-.645,13.6-0.629,2.934.22,6.86-.322,9.39v8.742c-0.456,2.117.221,5.574-.323,8.094-2.007,9.313.383,20.5-1.613,29.788q-1.29,29.786-2.58,59.576c-0.811,3.764-.156,8.849-0.968,12.628v6.152c-0.825,3.829.267,8.394-.645,12.627-0.323,1.5.088,4.249-.323,6.152-1.194,5.543-.938,12.338-0.968,18.456L65.5,368.3c4.242-.957,8.927-0.592,13.546-1.618,12.585-2.8,40.456-3.982,50.635,1.295,5.836,3.025,9.615,8.614,11.288,15.865,1.744,7.558-4.234,16.55-7.74,19.1-3.023,2.2-9.175,5.561-15.159,4.209-4.2-.948-10.847-2.9-16.771-1.619l-20,1.943c-3.257.731-7.016,0.472-10.643,1.295a92.04,92.04,0,0,1-19.351,1.943c0.02,5.807.174,13.776-.968,19.1-0.474,2.213.065,5.314-.322,7.123q-0.161,8.418-.323,16.837c-0.588,2.736.352,6.9-.322,10.037-1.318,6.13-.3,14.611-0.322,21.37a517.248,517.248,0,0,0,56.764,3.238c7.174,0,15.358.709,21.609-.648l6.127-.324c4.607-1.065,7.528-3.141,12.256-4.209,3.319-.749,6.981.522,9.031,1.3,7.551,2.85,16.739,11.583,13.546,23.636-4.18,15.777-17.021,16.851-33.22,20.4-4.978,1.09-9.906-.468-15.158.647-4.435.942-18.8,0.96-23.222,0H88.077c-6.022-.206-13.632-0.05-19.351-1.3H64.211c-6.85-1.5-14.9-.772-21.609-2.266l-8.063-.648c-13.344-3.056-24.612-2.023-30.962-12.3-1.674-2.711-4.013-8.356-2.9-13.275,0.367-1.624,1.152-4.4.645-6.8-0.918-4.357-.935-18.318,0-22.665v-5.828c0-5.113-.363-11.181.645-15.865l0.645-23.313L12.285,234.25l1.935-53.1V168.522c0.959-4.459.323-10.822,0.322-15.866,0-11.077-.281-22.785-0.322-33.349-0.021-5.2-1.876-12.055-.645-17.485C15.122,95,18.127,89.779,23.251,86.6c8.871-5.5,32.162-2.59,45.8-2.59,5.622,0,12.716-.767,17.739.324,3.435,0.746,7.933-.336,10.966.324,4.545,0.988,9.471-.24,13.546.648h4.837c5.126,1.131,11.224.824,16.126,1.943,3.727,0.851,6.8.352,10.321,1.3,15.519,4.15,28.337,8.49,31.93,24.608a13.362,13.362,0,0,1-.323,4.857c-2.17,9.193-5.405,13.767-13.546,16.836-2.039.769-5.723,2.057-9.03,1.295-7.539-1.735-10.581-5.548-18.062-7.447l-15.158-1.942h-3.87c-3.138-.688-7.653-0.669-10.966-0.972h-6.45c-3.032-.66-7.532.424-10.966-0.323C79.254,123.96,69.811,125.181,62.275,125.135Zm555.7,14.894c15.115-.129,23.434,7.226,26.447,19.1,1.319,5.2.322,12.646,0.322,18.456,0,5.444.721,12.311-.322,17.16v23.96q-1.129,41.763-2.258,83.536c-0.5,2.323.265,6.015-.323,8.742-0.478,2.22.243,5.794-.322,8.418-1.605,7.456.306,16.532-1.29,23.96q-0.162,7.77-.323,15.542c-1.552,7.227.262,16.085-1.29,23.312v8.095c-1.134,5.3-.924,13.777-0.967,19.427v7.447c-0.738,3.458.5,8.439-.323,12.3-0.951,4.466-.322,10.817-0.322,15.866,0,8.114-.9,17.423.645,24.607V474.5q0.805,5.99,1.612,11.98a26.509,26.509,0,0,1,12.256,16.513c3.558,13.64-7.017,23.962-15.481,27.2-2.5.956-6.9,2.517-10.966,1.619-22.277-4.923-27.791-17.236-33.219-38.854-1.692-6.739-.894-14.264-2.258-21.37h-0.322v0.324c-1.937,1.907-3.2,4.6-4.838,6.8-5.159,6.916-14.87,14.834-23.222,18.456a73.9,73.9,0,0,1-10.32,3.238c-5.445,1.432-14.343.908-19.351-.324-2.778-.684-4.868-0.466-7.418-1.3a70.3,70.3,0,0,1-28.7-17.161c-16.654-16.722-23.687-36.517-30.962-62.813-2.858-10.332-2.754-21.529-5.16-32.379q-0.967-12.3-1.935-24.607c-0.5-2.315.088-5.536-.323-7.447V343.364c-0.992-4.66-.322-11.263-0.322-16.513,0-4.443-.512-10.049.322-13.922V301.92c0.114-5.507-.163-12.887.968-18.132,0.455-2.109-.045-5.093.322-6.8q0.162-5.989.323-11.98c0.718-3.321-.157-7.3.645-11.009,2.135-9.869.118-21.48,2.258-31.407,1.069-4.961-.377-11.091.645-15.865,0.9-4.21-1.508-7.98-2.258-11.332-0.544-2.43.22-5.49,0.645-7.124,2.579-9.905,7.76-15.8,17.094-18.779,6.7-2.137,14.308.38,18.383,2.914,7.488,4.657,10.878,10.506,13.224,20.4q0.161,4.047.322,8.095a25.682,25.682,0,0,1,0,8.418c-0.61,2.83.2,6.64-.322,9.066q-0.162,5.99-.323,11.98c-1.726,8-.215,17.6-1.935,25.579-0.8,3.708.07,7.687-.645,11.009q-0.162,5.988-.323,11.979c-0.363,1.707.127,4.688-.322,6.8-1.056,4.964-.9,12.84-0.968,18.132v11.008c-1.593,7.58-.159,20.917,0,28.817,0.506,25,1.754,49.347,7.741,69.289,4.658,15.515,10.617,40.047,29.672,40.149,1.158-1.565,3.341-2.324,4.515-3.885a85.77,85.77,0,0,0,10-16.513c6.744-15.371,11.231-32.431,16.126-49.862,2.713-9.66,3.67-19.791,6.128-29.465q3.225-20.557,6.45-41.12,0.485-5.018.968-10.037c2.745-11.95,1.807-25.668,4.515-37.883,0.785-3.537.274-7.222,0.968-10.361q1.773-24.281,3.548-48.567v-5.5c0.846-3.872.119-9.08,0.967-12.952v-7.771c1.823-8.349-.438-18.358,2.58-25.255a25.275,25.275,0,0,1,11.289-11.656C612.449,141.28,615.854,141.388,617.978,140.029ZM871.8,366.677q-0.162,6.15-.323,12.3c-0.011,3.746.366,8.461-.323,11.656-0.676,3.139.268,7.3-.322,10.038-1.027,4.763.287,9.926-.645,14.246v5.5c-1.146,5.246-.5,11.718-1.613,16.837l-0.645,9.714c-2.3,10.258-2.894,20.713-6.45,29.14-3.508,8.312-8.087,13.047-16.771,16.189-2.266.82-6.431,2.1-10,1.3-10.435-2.363-15.948-6.778-19.674-15.865-1-2.427-2.538-6.959-1.613-11.009a41.269,41.269,0,0,1,2.258-7.77c0.84-1.838,2.3-3.17,2.9-5.5l2.58-20.074q0.16-3.885.322-7.771c0.614-2.822.351-6.854,0.968-9.714v-5.5c1-4.621-.452-10.144.645-15.218,1.177-5.443.6-13.421,0.645-19.427h-0.323c-2.623,1.689-10.951.9-13.545,0-8.5-2.935-18.351-12.319-14.191-25.255,2.392-7.439,7.772-12.445,15.481-14.57,3.318-.915,9.676-0.039,12.255-1.619,1.145-1.816.359-12.492,0.323-15.541-0.912-1.493-.323-5.626-0.323-7.771V289.293c-1.415-6.613-.322-16.909-0.322-24.284v-6.8c-1.412-6.591,1.118-16.268-.323-22.988-0.763-3.561.528-8.663-.322-12.628-0.432-2.014.2-5.352-.323-7.77a70.924,70.924,0,0,1-.967-10.685,21.116,21.116,0,0,1-15.8-12.628c-5.026-12.088,3.237-23.485,11.289-26.874,7.5-3.155,17.456-2.335,26.124-4.209h5.805c8.146-1.684,24.748,0,31.607,1.619,10.429,2.459,19.767,3.131,28.7,6.8,10.381,4.261,20.677,8.8,29.35,14.894,5.213,3.665,9.795,8.156,14.836,11.98,3.728,2.829,6.875,7.532,9.675,11.333,6.42,8.713,12.372,17.933,16.126,29.464,1.65,5.069,1.648,9.783,2.9,15.542,1.271,5.832,1.1,16.693-.323,22.341-1.8,7.166-3.425,13.855-6.127,20.074-12.874,29.624-40.6,47.914-70.31,60.871-6.761,2.949-13.683,5.246-21.286,7.771C880.068,364.333,876.009,366.089,871.8,366.677ZM1079.83,208.671c0.03,15.754.04,32.605,0,48.243q-0.165,12.627-.33,25.255-1.29,32.052-2.58,64.109h0.33c2.84-1.86,12.81-1.332,17.09-2.266,2.44-.533,5.47-0.027,8.39-0.648a31.382,31.382,0,0,1,10.32,0l6.12,0.324c6.79,1.681,11.26,5.113,14.2,10.685,1.38,2.619,3.65,7.206,2.58,11.98-2.31,10.179-7.67,15.79-17.74,18.132l-17.1-.324c-4,.868-8.37.643-12.57,1.619a69.585,69.585,0,0,1-13.55,1.942c0.07,21.162-1.54,41.823-1.61,63.786,12.69,0.538,29.43,2.483,41.28-.648,5.1-1.348,8.12-4.53,13.87-5.828,10.79-2.439,20.08,8.09,22.25,14.894a18.556,18.556,0,0,1,.65,8.418c-3.93,16.858-17.95,20.045-34.84,23.96-3.25.755-6.91,0.5-9.99,0.971h-5.81c-6.3,1.341-22.87.624-28.7-.647l-7.1-.324c-10.18-2.264-21.87-1.929-29.03-7.123-9.27-6.728-10.32-22.179-10.32-38.206,0-5.246-.67-11.858.33-16.513v-12.3c0.59-2.735-.36-6.9.32-10.037,0.48-2.221-.24-5.795.32-8.419,1.58-7.34-.28-16.308,1.29-23.636q0.165-7.284.32-14.57c1.97-9.13-.35-20.647,1.62-29.788v-7.447c1.09-5.094.79-12.186,0.96-17.484v-7.123c0.9-4.175.65-9.691,0.65-14.247v-5.18c0.74-3.457-.51-8.443.32-12.3,1.1-5.119.61-13.184,0.65-18.456,0.07-8.973.94-19.471-.33-27.845q-0.15-8.9-.32-17.808c-1.77-8.391-1.69-21.063,1.94-26.874,4.42-7.09,15.08-12.206,28.06-9.39h21.93c5.54,0,13.32-.452,18.38.648,2.61,0.568,6.17-.158,8.39.324,3.72,0.81,7.69-.066,10.96.647h4.52c4.7,1.04,10.37.895,14.83,1.943,4.03,0.947,7.51.561,11.29,1.619,14.99,4.192,27.46,8.885,30.96,24.607a13.386,13.386,0,0,1-.32,4.857c-2.16,9.175-5.42,13.773-13.54,16.837-2.04.768-5.73,2.057-9.04,1.295-7.56-1.742-9.92-5.616-16.44-7.447-5.9-1.655-12.37-.87-18.71-2.267-2.4-.528-5.95-0.441-8.39-0.971h-5.8c-1.8-.393-4.89.157-7.1-0.324-2.93-.639-7.31.4-10.64-0.324C1089.38,208.193,1084.06,208.7,1079.83,208.671ZM726.022,178.235c14.03-.226,24.1,4.429,29.35,12.951,9.524,15.448-4.306,29.218-16.126,33.026-15.789,5.087-31.191-2.971-36.445-12.951-2.245-4.264-3.6-11.318-1.29-16.837,2.646-6.312,8.544-11.274,14.836-13.922C718.637,179.537,724.235,179.339,726.022,178.235Zm-408.955,4.209a83.4,83.4,0,0,1,29.349,4.533c32.159,10.764,48.384,30.613,59.021,62.814,2.916,8.828,3.552,18.567,5.805,28.169q0.484,5.989.968,11.98a64.557,64.557,0,0,1,.968,11.009v6.475c0.931,4.349.963,15.413,0,19.751v7.447c-2,8.938-.788,18.85-2.9,27.522-3.934,16.134-6.656,31.256-12.578,45.005-1.753,4.07-3.739,8.31-5.806,12.3-0.622,1.2-2.242,3.147-1.935,4.209,1.006,2.86,4.406,4.831,6.128,7.123,3.123,4.158,6.551,7.824,9.676,11.98,1.834,2.441,4.733,4.229,6.45,6.8,14.61-3.016,28.667,11.052,23.867,25.9-2.788,8.625-9.7,14.721-18.384,17.485-4.753,1.513-12.211.635-16.126-.972-10.052-4.125-18.375-12.239-24.512-20.4-1.817-2.417-4.627-4.369-6.45-6.8-1.619-2.16-6.574-9.448-9.031-10.038-2.758,3.423-10.092,6.161-14.513,8.095-19.287,8.435-49.334,11.23-71.277,2.914-25.77-9.766-44.448-27.82-54.829-53.1-3.308-8.057-4.483-17.331-6.772-26.227q-0.484-4.209-.968-8.418c-0.9-3.873-.694-8.893-1.613-12.951V359.23a51.017,51.017,0,0,1,0-16.837q0.162-5.341.323-10.685c0.621-2.739.251-6.04,0.967-9.066l4.516-26.55c4.759-16.88,8.01-33.942,14.191-48.891,2.236-5.409,3.556-10.764,6.45-15.542,7.717-12.741,17.373-24.257,29.349-32.7,8.852-6.241,19.208-10.577,30.962-13.922,3.576-1.018,7.451-1.124,10.966-1.943C311.682,182.543,315.22,183.6,317.067,182.444Zm552.154,19.427q0.645,12.627,1.29,25.255,0.485,48.4.968,96.811c6.627-.764,15.651-5.625,21.286-8.094,18.757-8.22,34.992-19.074,44.186-36.912,4.328-8.4,6.1-22.465,1.935-32.7C928.276,220.167,901.822,205.862,869.221,201.871Zm-549.9,28.493c-0.987.609-2.773,0.009-4.193,0.324-2.59.575-5.484,0.784-8.063,1.619a53.278,53.278,0,0,0-15.8,8.742,29.52,29.52,0,0,0-5.16,5.828c-1.17,1.563-3.1,2.91-4.193,4.533-3.176,4.69-4.484,10.251-6.773,15.865-6.034,14.8-8.68,31.987-12.9,48.891l-2.58,18.78q-0.162,5.179-.323,10.361c-1,4.765-.666,12.59.323,17.16,1.284,5.935.52,11.877,1.935,17.485,5.055,20.036,8.881,29.543,25.479,38.206,9.265,4.836,25.458,6.955,37.09,2.266a1.162,1.162,0,0,0-.645-0.323c-4.533-3.412-10.875-.169-16.771-1.619-9.394-2.311-14.62-8.175-16.771-17.808-1.212-5.426,1.428-10.524,3.225-13.275,2.49-3.812,5.492-7.042,10-8.743,11.283-4.258,28.546-.176,37.09,3.562,4.4,1.924,8.42,5.617,12.9,7.123,0.73-3.113,2.46-6.15,3.548-9.066,2.1-5.644,3.218-11.837,4.837-17.808,2.191-8.073,1.615-17.041,3.548-25.578q0.162-6.638.323-13.276c1-4.618.671-17.6-.323-22.017V296.74q-0.968-8.418-1.935-16.837c-5.643-23.184-8.017-38.705-29.349-46.625A40.739,40.739,0,0,0,319.324,230.364Zm407.343,6.476c16.113-.1,23.506,8.229,26.447,21.369q0.485,16.026.968,32.055c0.78,3.665-.544,8.881.322,12.951,1,4.707.214,11.223,0.323,16.513,0.167,8.165.322,17.541,0.322,26.226,0,7.808.078,16.356-.322,23.637-0.271,4.922.615,10.855-.323,15.217-0.719,3.346.31,7.743-.322,10.685v6.476c-0.141,4.13-.127,9.7-0.968,13.6q-0.322,6.8-.645,13.6c-2.011,9.144-1.733,19.384-3.87,27.845-3.9,15.452-6,27.045-18.706,33.673-3.039,1.586-8.345,4.191-13.869,2.914-10.016-2.315-15.962-6.895-19.351-15.865-0.927-2.454-2.516-6.667-1.613-10.685,1.739-7.736,5.174-11.791,7.1-19.427,1.947-7.738,1.173-16.321,2.9-24.284q0.162-4.531.323-9.065c1.322-6.113.705-13.965,1.29-20.4v-9.066c0.92-4.282-.683-10.207.323-14.894,0.873-4.07.322-9.925,0.322-14.57V327.5q-0.483-23.472-.967-46.949c-1.3-6.1-1.639-23.407.322-28.169A26.57,26.57,0,0,1,718.6,239.106C720.761,238,724.705,238.079,726.667,236.84Z"/>
</svg>
