<svg xmlns="http://www.w3.org/2000/svg" width="1000" height="250" viewBox="0 0 1000 250">
  <defs>
    <style>
      .cls-1 {
        fill: #fff;
        fill-rule: evenodd;
      }
    </style>
  </defs>
  <path id="Watermelon_1" class="cls-1" d="M766.145,225.31l15.6,1.825h1.972c3.249,0.716,7.215.275,10.511,1,3.7,0.809,8.353-.128,11.991.664h4.27c1.807,0.39,4.393-.267,6.406.165a50.423,50.423,0,0,0,12.319,0h5.091c3.95-.861,8.279-0.1,12.155-1,2.646-.609,5.722-0.751,8.048-1.824a7.985,7.985,0,0,0,1.15-1.161,14.162,14.162,0,0,1,5.255-2.157,8.407,8.407,0,0,1,4.6.664c3.779,1.443,8.571,5.993,6.9,12.109-1.52,5.559-5.695,8.014-10.676,10.119-9.487,4.007-23.3,4.478-36.463,4.478-3.117,0-7.05.448-9.856-.166-1.853-.4-4.263.195-5.912-0.166-1.331-.29-3.144.082-4.271-0.165h-3.614c-4.79-1.058-10.417-.128-15.11-1.161L780.6,248.2c-4.46-1-9.6-.654-13.962-1.659l-5.091-.5c-7.113-1.67-15.652-1.7-20.7-5.474-2.766-2.074-5.266-7.531-3.285-12.276a12.676,12.676,0,0,1,2.628-3.815l1.15-.829v-1.991c-0.354-.577.008-1.673-0.164-2.488-0.513-2.427.242-5.421-.329-8.128-0.683-3.241-.164-7.716-0.164-11.281,0-8.66.55-17.052,0.657-25.544a30.586,30.586,0,0,1,.329-4.977c0.509-2.386-.135-4.967.328-7.133,0.486-2.275-.114-4.733.328-6.8v-3.317c0.614-2.858.048-6.441,0.658-9.29q0.738-14.845,1.478-29.692c1.19-5.544-.038-12.692,1.15-18.247V91.611c0.655-3.059,0-6.875.656-9.953V78.175a51.6,51.6,0,0,0,.493-8.128V66.564c0.255-1.191-.134-3.082.164-4.479,0.289-1.348-.168-3.42.165-4.976a42.449,42.449,0,0,0,.328-6.968V42.013a40.4,40.4,0,0,0,0-11.28V24.1c-0.4-1.922.109-4.228-.328-6.3-1.2-5.693,0-9.429,2.463-12.772,1.572-2.132,6.183-5.509,10.677-4.478,5.515,1.264,9.059,4.14,10.512,9.455,0.738,2.7.229,6.006,0.821,8.791q0.082,4.562.164,9.124c0.6,2.839.164,6.8,0.164,9.952,0,2.534.313,5.727-.164,7.963q-0.083,6.634-.164,13.27-1.232,26.289-2.464,52.584c-0.376,1.75.092,3.849-.328,5.806-0.994,4.628,0,10.144-.986,14.763-0.429,2.006.058,4.164-.328,5.972q-0.165,4.561-.329,9.123c-1.091,5.095.107,11.139-.985,16.256-0.242,1.134.033,2.723-.164,3.65v3.815a55.069,55.069,0,0,0-.493,9.123v3.65c-0.336,1.581.106,3.82-.165,5.64a61.473,61.473,0,0,0-.164,7.63c-0.027,3.572-.322,8.048,0,11.611v5.806c0.354,1.656-.059,3.665.329,5.474Q765.815,222.655,766.145,225.31ZM254.507,35.378q-0.657,35.08-1.314,70.167v9.123c-0.552,2.584.259,5.957-.164,8.793a69.473,69.473,0,0,0-.165,7.8c-0.057,2.783-.176,6.516-0.328,9.289-0.124,2.259.258,4.988-.164,6.967l-0.165,13.934c-0.547,2.548-.328,6.077-0.328,8.791v2.986c-0.324,1.507.205,3.761-.164,5.474-0.28,1.3.16,3.309-.165,4.811-0.268,1.243.149,3.2-.164,4.644-1,4.638.162,10.173-.821,14.764q-0.246,5.307-.493,10.616c-0.533,2.449-.083,5.2-0.657,7.8-0.472,2.135-.286,4.55-0.821,6.8-1.66,6.983-2.13,12.433-6.406,16.755-1.937,1.957-6.471,5.383-11.169,4.312-6.373-1.453-9.242-4.445-10.676-10.948a9.55,9.55,0,0,1,0-3.815,15.606,15.606,0,0,1,1.971-4.645c0.414-.6,1.378-1.134,1.642-1.825,0.678-1.769.569-4.613,0.986-6.469l1.314-16.422q0.083-3.068.164-6.138c1.044-4.859-.226-11.027.822-15.923,0.333-1.556-.125-3.629.164-4.978,0.355-1.661-.147-3.853.164-5.308v-2.985c0-2.717-.217-6.242.328-8.791q0.083-6.967.165-13.934c0.48-2.247-.361-5.344.164-7.8a33.387,33.387,0,0,0,.164-5.972c0-3.3.036-7.379,0.329-10.616v-8.46c0.552-2.584-.259-5.957.164-8.792,0.542-3.636.328-8.376,0.328-12.109V86.3q0.494-25.71.986-51.424l-14.29-.166a34.175,34.175,0,0,0-6.241.166c-1.593.346-3.7-.135-5.092,0.166h-3.121c-1.789.389-3.831,0.065-5.749,0.5-2.114.477-4.587,0.57-6.57,1.327a30.324,30.324,0,0,1-4.6,1.825c-2.239.509-4.5-.51-5.748-1.162A10.666,10.666,0,0,1,175.01,21.61c2.884-4.01,9.23-5.146,14.783-6.469,2.188-.522,4.474-0.37,6.57-0.829q3.858-.168,7.719-0.332c1.493-.324,3.723.2,5.421-0.167,2.263-.491,5.487-0.165,8.048-0.165,2.764,0,6.243-.368,8.705.165l16.918,0.167c2.036,0.44,4.9.117,7.227,0.165,3.279,0.069,7.136.166,10.676,0.167h10.84a32.542,32.542,0,0,0,5.913-.167c1.175-.255,2.808.045,3.778-0.165H284.4l8.869-1a33.553,33.553,0,0,0,5.256-1.327c1.354-.606,2.506-1.8,4.106-2.323,5.229-1.692,10.007,1.673,11.826,4.645q0.575,1.326,1.15,2.654c1.471,4.64-1.147,9.428-3.614,11.28-1,.748-2.021,1.149-3.121,1.825C297.476,36.742,272.512,35.35,254.507,35.378ZM986.9,39.857c6.693-.144,10.36,2.833,12.155,7.63,0.466,1.247,1.3,3.427.821,5.474-1.227,5.3-2.336,10.867-3.778,16.091-0.863,3.127-1.152,6.321-1.971,9.289-1.375,4.988-1.724,10.209-2.956,15.1-0.566,2.243-.415,4.216-0.986,6.469-1.588,6.274-1.931,13.33-3.449,19.74l-0.657,5.64c-1.635,6.986-1.374,14.879-2.956,22.062-0.611,2.771-.254,5.687-0.822,8.294-0.8,3.662-.049,7.857-0.821,11.446v3.649a44.754,44.754,0,0,0-.164,9.787c0.429,1.981,1.334,3.292,1.807,5.142,1.335,5.234-2.125,10.571-4.763,12.441a15.862,15.862,0,0,1-4.107,1.99c-3.1,1-6.669-.093-8.705-1.161-5.6-2.936-8.428-7.792-11.334-13.436-8.129-15.791-13.676-34.53-19.545-52.418-1.876-5.719-3.424-11.489-5.256-17.085-0.6-1.82-.925-5.15-1.971-6.47q-0.163,7.3-.328,14.6a32.271,32.271,0,0,0,.163,5.806v2.986c0,2.68-.192,5.711.329,8.127v3.484c0.571,2.654.093,6.012,0.657,8.626v2.654c0.91,4.233.242,9.231,1.15,13.436q0.821,11.528,1.643,23.057v6.47c0,8.834-1.87,15.2-7.556,18.246-1.6.857-4.326,2.316-7.227,1.66-5.654-1.281-9.239-4.148-10.677-9.622-0.833-3.171.508-6.075,1.151-8.128,0.422-1.352.091-6.279-.165-7.465v-2.985c-0.635-2.951-.19-6.544-0.821-9.456v-2.156c-1.165-5.4-.306-11.656-1.479-17.085-0.341-1.582-.029-3.26-0.328-4.645q-0.083-2.655-.164-5.309c-0.919-4.315.122-9.534-.821-13.933v-6.137c-0.428-2.041-.164-4.968-0.164-7.3,0-2.222-.255-5.034.164-6.966,0.382-1.765-.174-4.081.164-5.64v-3.318c0.218-2.4-.056-5.307.493-7.8,0.568-2.577.208-5.429,0.821-8.129,1.441-6.351,1.785-13.018,3.614-18.744q0.656-2.736,1.314-5.473c1.184-3.615,2.676-7.3,4.106-10.617,1.275-2.956,2.353-5.863,4.763-7.63a15.89,15.89,0,0,1,4.27-2.157,12.585,12.585,0,0,1,7.884.664c7.047,3.008,6.939,8.628,9.363,16.091,5.363,16.513,9.582,33.755,14.946,50.1,1.693,5.156,3.137,10.3,4.763,15.26,0.588,1.793.723,4.271,1.807,5.64a45.9,45.9,0,0,1,1.314-9.62q0.165-1.825.329-3.65c0.814-3.42.995-7.4,1.807-10.782,0.748-3.123.527-6.041,1.314-9.123,2.668-10.459,3.427-21.694,6.241-31.85q0.328-1.989.657-3.981c1.257-4.5,2.043-9.484,3.285-13.933,0.988-3.539,1.289-6.306,3.121-8.792a12.205,12.205,0,0,1,4.434-3.318C984.719,40.284,986.041,40.4,986.9,39.857ZM595,44.834c9.276-.126,12.811,5.4,14.455,12.938,0.44,2.022-.305,4.313-0.658,5.807-0.555,2.356-.488,4.782-0.985,6.966-0.747,3.282-.244,6.455-0.985,9.787-1.357,6.1-.627,13.166-1.972,19.408-0.461,2.142-.073,4.354-0.493,6.3-0.514,2.395-.018,4.922-0.492,7.133-0.73,3.4.045,7.334-.657,10.618v2.985c-0.665,3.105.01,7-.657,10.118q-0.246,8.958-.493,17.916c-0.363,1.71-.1,4.148-0.164,6.138-0.084,2.491-.164,5.541-0.164,8.293v4.313c-0.605,2.865-.159,7.223,0,10.119,0.173,3.153-.445,6.934.164,9.786,0.355,1.662-.147,3.855.164,5.309q0.083,3.482.164,6.967c0.962,4.491.289,9.383,1.314,13.768,0.3,1.288.3,3.693,0.986,4.81l1.314,1.162a16.682,16.682,0,0,1,2.3,4.644c2.146,6.8-3.1,12.849-7.228,14.6-3.956,1.679-8.861.434-11.661-1.327-5.838-3.669-7.451-9.724-9.362-17.417-0.569-2.288-.294-4.429-0.822-6.8-0.792-3.564-.358-7.909-1.15-11.612v-2.985c-0.537-2.525.259-5.533-.328-8.294-0.42-1.98-.04-4.708-0.165-6.968-0.184-3.347-.163-7.331-0.163-10.948,0-25.84,1.2-50.736,2.956-74.811H580.05v0.331c-0.948,1.081-1.2,2.709-1.971,3.981-1.808,3-3.1,6.393-4.763,9.622-3.489,6.772-6.745,13.763-9.855,20.9-1.625,3.727-3.8,7.547-5.421,11.279-2.838,6.522-3.96,9.831-11.5,11.778a10.92,10.92,0,0,1-6.242-.332,13.469,13.469,0,0,1-6.734-7.133q-0.575-2.239-1.15-4.479c-2.294-5.674-3.849-12.17-5.584-18.412-0.687-2.471-1-4.971-1.643-7.3-0.236-.861-0.058-1.71-0.493-2.324q-2.3,20.154-4.6,40.31-0.494,5.307-.986,10.615c-0.622,2.773-.321,5.852-0.986,8.793-0.479,2.121-.3,4.512-0.821,6.8-1.2,5.268-1.31,11.12-2.628,16.09-0.611,2.306-.783,4.31-1.642,6.3-2.176,5.049-9.011,10.707-16.59,7.464-3.906-1.672-9.1-7.329-7.391-13.934a38.438,38.438,0,0,1,1.807-4.148,34.5,34.5,0,0,0,.821-4.146q0.9-6.635,1.807-13.27l0.165-2.654c1.276-5.633.879-12.092,2.135-17.749q0.163-2.324.328-4.645c0.956-4.292.688-9.3,1.642-13.6q0.084-1.494.165-2.986c0.924-4.115.531-8.892,1.478-13.1,0.588-2.615.35-5.515,0.985-8.294,0.564-2.463.377-5.161,0.986-7.8,1.341-5.8,1.409-12.257,2.793-17.915,0.483-1.978.324-3.68,0.821-5.64,2.461-9.706,3.819-21.9,10.676-27.038a16.593,16.593,0,0,1,3.942-2.157c6.4-2.336,12.343,2.252,14.782,5.64,2.891,4.016,2.707,10.717,4.106,16.256,1.11,4.394,1.3,9.162,2.464,13.768,1.975,7.83,2.936,16.368,4.6,24.219a0.591,0.591,0,0,0,.165-0.332c1.307-1.5,2.26-4.671,3.12-6.635,1.517-3.464,3.515-7.084,5.256-10.451,1.08-2.085,1.748-4.295,2.957-6.3,2.357-3.915,4.018-8.308,6.406-12.275,4.374-7.268,8.4-14.764,13.14-21.564a70.484,70.484,0,0,1,7.719-9.621l1.807-1.992a28.484,28.484,0,0,1,5.749-3.815C592.815,45.26,594.149,45.384,595,44.834ZM113.909,50.473c7.519-.087,11.763,3.733,13.3,9.621,0.718,2.739.329,7.668,0.329,10.948,0,3.243.3,7.389-.329,10.285v3.317q-0.492,7.049-.985,14.1c-0.48,2.171-.137,4.632-0.657,6.967l-2.628,21.233-3.285,20.569c-1.2,4.715-1.457,9.8-2.792,14.6-1.09,3.912-1.5,8.079-2.628,12.11-2.7,9.613-4.455,19.669-8.048,28.531-1.678,4.137-3.342,8.486-5.749,11.943a16.9,16.9,0,0,1-5.257,4.811c-5.328,3.155-10.775,2.311-15.439-.829C73.1,214.2,69.98,206.72,66.77,198.77c-0.84-2.081-1.15-4.268-1.971-6.3H64.634c-0.092,1.879-1.116,3.719-1.642,5.309-1.179,3.56-2.048,7.09-3.285,10.45-1.016,2.762-1.456,5.4-2.464,8.128-2.145,5.806-4.2,11.916-6.57,17.418-1.628,3.771-3.094,7.713-5.749,10.45-2.791,2.877-8.041,6.088-13.961,4.147a18.849,18.849,0,0,1-5.584-3.318c-1.98-1.542-3.507-4.948-4.6-7.465-2.045-4.715-3.575-10.167-5.256-15.426q-0.657-2.986-1.314-5.972c-3.178-10.558-4.154-22.342-6.9-33.507-1.09-4.438-1.1-9.112-2.135-13.437q-0.164-1.742-.328-3.483c-1.115-4.75-1.044-10.257-2.135-15.1q-0.9-9.288-1.807-18.577c-0.528-2.409.009-5.173-.493-7.465V121.3c-0.7-3.3-.328-7.877-0.328-11.612,0-14.318.978-29.516,11.826-33.01,6.89-2.219,12.5,3.006,14.29,7.3,0.583,1.4,1.533,3.9.986,6.3-0.606,2.66-1.478,5-2.135,7.8q-0.247,2.9-.493,5.805v2.986a25.591,25.591,0,0,0,0,8.3v4.975c0.4,1.81-.108,3.982.328,5.973,0.962,4.385.368,9.484,1.314,13.768q0.083,1.575.165,3.151c0.794,3.519.685,7.665,1.478,11.115q0.328,3.15.657,6.3c1.131,4.867,1.29,10.317,2.464,15.1q0.247,1.99.493,3.98c1.24,4.88,1.689,10.307,2.956,15.1,0.514,1.941.718,6.5,1.643,7.8v-0.166c0.869-1.217.923-3.139,1.478-4.644,1.321-3.583,2.2-7.335,3.449-11.114,4.118-12.424,7.294-25.9,12.154-37.821,2.466-6.048,3.477-9.911,9.526-12.441a11.118,11.118,0,0,1,6.242-.83l3.285,1c9.434,4.179,9.146,22.113,12.154,33.01,0.833,3.014,1.138,6.012,1.971,8.792,0.3,1.012.188,2.815,0.985,3.318a19.8,19.8,0,0,1,1.314-4.977c1.088-3.36,1.539-7,2.464-10.285,2.35-8.34,2.937-17.24,5.092-25.711q0.329-2.488.657-4.977c1.678-6.767,1.664-14.431,3.285-21.4,0.658-2.828.386-5.8,0.986-8.46q0.083-1.575.164-3.151c0.771-3.441.372-7.607,1.15-11.115q0.163-3.9.328-7.8c0.192-.874-0.072-2.4.164-3.483,0.318-1.453-.2-3.65.165-5.308a32.658,32.658,0,0,0,.164-5.972c0-3.828-.555-7.889.657-10.782a13.071,13.071,0,0,1,6.734-6.8C111.591,50.89,113.013,51.039,113.909,50.473ZM381.472,162.11c-2.381.035-4.854,0.72-7.063,0-5.718-1.862-10.251-9.423-5.913-16.09,1.553-2.386,4.206-3.888,7.392-4.645,1.722-.409,4.059.179,5.42-0.663,0.582-.931.182-6.4,0.164-7.962-0.465-.765-0.164-2.883-0.164-3.982V117.655c-0.721-3.389-.165-8.663-0.165-12.442V101.73c-0.719-3.377.57-8.335-.164-11.777-0.388-1.824.269-4.438-.164-6.469-0.22-1.032.1-2.742-.164-3.981a36.46,36.46,0,0,1-.493-5.474,10.769,10.769,0,0,1-8.049-6.468c-2.559-6.194,1.649-12.033,5.749-13.769,3.818-1.616,8.89-1.2,13.3-2.157h2.957c4.149-.863,12.6,0,16.1.83,4.2,1,7.907,1.233,11.663,2.489a77.215,77.215,0,0,1,22.5,12.109c4.905,3.711,9.082,9.2,12.154,14.764a56.566,56.566,0,0,1,5.092,13.436c1.878,7.258.2,16.708-1.971,22.062-6.045,14.92-14.893,22.12-27.759,30.024a87.288,87.288,0,0,1-11.333,5.309c-1.654.687-5.068,1.24-6.241,2.322,2.184,2.27,3.553,5.566,5.256,8.293,2.7,4.321,5.381,8.876,8.048,13.271,1.424,2.346,2.356,4.775,3.778,7.133,5.2,8.622,9.854,17.84,15.111,26.375,1.615,2.621,2.866,5.3,4.6,7.8a22.376,22.376,0,0,0,2.628,3.483c1.229,0.905,2.567,1.429,3.449,2.655,3.369,4.683,2.37,11.87-1.807,14.929-6.577,4.817-14.391.407-17.9-4.313-6.7-9.009-11.968-19.37-17.9-29.195-1.613-2.67-2.662-5.459-4.27-8.128-2.337-3.878-4.351-8.014-6.735-11.944-0.993-1.637-2.5-3.4-3.121-5.307h-0.164v1.99c-0.387.661,0.033,1.913-.164,2.82-0.592,2.711-.032,5.789-0.657,8.625-0.532,2.415-.24,5.108-0.821,7.631-1.962,8.519-2.027,14.882-8.377,19.076-2.033,1.343-5.665,2.969-9.363,1.991a12.311,12.311,0,0,1-8.869-7.963,10.071,10.071,0,0,1-.821-5.639,21.25,21.25,0,0,1,1.15-3.981,15,15,0,0,0,1.478-2.82q0.657-5.143,1.314-10.285,0.082-1.989.164-3.981c0.313-1.446.178-3.512,0.493-4.976v-2.82c0.509-2.368-.23-5.2.328-7.8C381.731,169.162,381.454,165.123,381.472,162.11ZM835.13,52.132a41.043,41.043,0,0,1,16.917,2.986c2.646,1.1,5.087,1.731,7.392,3.152,8.9,5.483,14.851,13.32,19.053,23.555,1.76,4.289,2.546,9.123,3.777,13.934,1.107,4.325.63,9.1,1.642,13.6q0.084,3.4.165,6.8c0.6,2.812.43,11.272-.165,13.934q-0.081,2.323-.163,4.645c-0.913,4.047-.628,8.336-1.643,12.276-1.05,4.077-1.67,8.218-2.957,12.109-4.145,12.538-9.841,23.9-19.381,31.02a48.232,48.232,0,0,1-13.633,7.464c-2.965,1-5.832,1.05-9.2,1.824-1.83.421-7.865,1.028-10.183,0.5-1.375-.315-2.975-0.136-4.435-0.5-2.989-.741-6.016-1.2-8.7-2.322a50.633,50.633,0,0,1-24.8-21.232c-2.818-4.657-3.965-10.77-5.584-16.589-0.636-2.283-.625-4.736-1.15-6.966l-0.657-6.636V142.7a26.286,26.286,0,0,1,0-8.626q0.083-2.736.164-5.474c0.98-4.347.715-8.86,1.807-13.1,0.742-2.885.97-6,1.807-8.957,1.378-4.876,2.59-10.018,4.106-14.6,2.219-6.705,4.233-13.164,7.884-18.413,5.879-8.453,13.668-14.55,23.816-18.744,2.76-1.14,5.975-1.413,9.034-2.156ZM302.961,75.853c0.017,8.071.022,16.7,0,24.716L302.8,113.507q-0.656,16.422-1.314,32.845h0.165c1.449-.953,6.522-0.683,8.7-1.161,1.243-.273,2.787-0.014,4.27-0.332a15.877,15.877,0,0,1,5.256,0L323,145.025a10.391,10.391,0,0,1,7.227,5.474c0.7,1.342,1.864,3.692,1.314,6.137-1.171,5.211-3.912,8.092-9.034,9.289l-8.7-.165c-2.061.448-4.253,0.327-6.4,0.829a35.074,35.074,0,0,1-6.9,1c0.034,10.842-.785,21.426-0.822,32.679,6.467,0.275,14.988,1.272,21.025-.332,2.6-.691,4.137-2.321,7.062-2.985,5.5-1.25,10.23,4.144,11.334,7.63a9.6,9.6,0,0,1,.328,4.313c-2,8.636-9.138,10.268-17.739,12.274-1.658.387-3.52,0.255-5.092,0.5h-2.956c-3.211.687-11.648,0.32-14.618-.332l-3.614-.166c-5.186-1.161-11.137-.988-14.783-3.648-4.719-3.446-5.255-11.367-5.255-19.575,0-2.687-.345-6.075.164-8.459v-6.3c0.3-1.4-.18-3.534.164-5.143,0.244-1.137-.124-2.968.164-4.312,0.806-3.76-.145-8.355.657-12.109q0.083-3.732.164-7.464c1-4.679-.178-10.579.822-15.262v-3.815c0.558-2.61.4-6.243,0.492-8.957v-3.65a38.228,38.228,0,0,0,.329-7.3v-2.655c0.356-1.665-.236-4.1.164-5.971,0.581-2.72.308-6.988,0.329-9.787,0.035-4.6.482-9.975-.164-14.266l-0.165-9.123c-0.9-4.3-.862-10.792.986-13.768,2.254-3.633,7.679-6.253,14.29-4.811h11.168c2.822,0,6.787-.231,9.363.332,1.331,0.291,3.144-.08,4.27.166,1.895,0.415,3.92-.034,5.585.332h2.3c2.4,0.533,5.284.458,7.556,0.995,2.052,0.486,3.822.288,5.748,0.83,7.631,2.148,13.984,4.552,15.769,12.607a6.874,6.874,0,0,1-.165,2.488c-1.1,4.7-2.76,7.057-6.9,8.626a8.4,8.4,0,0,1-4.6.664,14.231,14.231,0,0,1-3.777-1.162c-1.579-.934-2.493-2.06-4.6-2.654-3-.848-6.3-0.446-9.526-1.162-1.221-.27-3.028-0.226-4.271-0.5h-2.956c-0.918-.2-2.492.08-3.614-0.166-1.513-.332-3.672.1-5.42-0.166A53.112,53.112,0,0,0,302.961,75.853Zm365.455,0c0.017,8.071.023,16.7,0,24.716q-0.083,6.468-.164,12.938-0.657,16.422-1.314,32.845H667.1c1.45-.953,6.523-0.683,8.706-1.161,1.243-.273,2.787-0.014,4.27-0.332a15.878,15.878,0,0,1,5.256,0l3.12,0.166a10.4,10.4,0,0,1,7.228,5.474c0.7,1.342,1.863,3.692,1.314,6.137-1.17,5.2-3.916,8.092-9.034,9.289l-8.705-.165c-2.062.448-4.254,0.327-6.406,0.829a35.063,35.063,0,0,1-6.9,1c0.035,10.842-.785,21.426-0.821,32.679,6.467,0.275,14.988,1.272,21.024-.332,2.6-.691,4.138-2.321,7.063-2.985,5.494-1.25,10.23,4.144,11.333,7.63a9.613,9.613,0,0,1,.329,4.313c-2,8.636-9.138,10.268-17.74,12.274-1.658.387-3.519,0.255-5.091,0.5h-2.957c-3.211.687-11.647,0.32-14.618-.332l-3.613-.166c-5.186-1.161-11.137-.988-14.783-3.648-4.719-3.446-5.256-11.367-5.256-19.575,0-2.687-.345-6.075.164-8.459v-6.3c0.3-1.4-.18-3.534.165-5.143,0.243-1.137-.124-2.968.164-4.312,0.806-3.76-.145-8.355.657-12.109q0.083-3.732.164-7.464c1-4.679-.179-10.579.821-15.262v-3.815c0.558-2.61.4-6.243,0.493-8.957v-3.65a38.312,38.312,0,0,0,.328-7.3v-2.655c0.356-1.665-.235-4.1.165-5.971,0.581-2.72.307-6.988,0.328-9.787,0.035-4.6.482-9.975-.164-14.266q-0.082-4.561-.164-9.123c-0.9-4.3-.862-10.792.986-13.768,2.254-3.633,7.679-6.253,14.289-4.811h11.169c2.822,0,6.786-.231,9.363.332,1.331,0.291,3.144-.08,4.27.166,1.895,0.415,3.92-.034,5.584.332h2.3c2.394,0.533,5.284.458,7.555,0.995,2.053,0.486,3.823.288,5.749,0.83,7.631,2.148,13.983,4.552,15.768,12.607a6.875,6.875,0,0,1-.164,2.488c-1.1,4.7-2.76,7.057-6.9,8.626a8.393,8.393,0,0,1-4.6.664,14.231,14.231,0,0,1-3.777-1.162c-1.579-.934-2.493-2.06-4.6-2.654-3-.848-6.3-0.446-9.527-1.162-1.221-.27-3.028-0.226-4.271-0.5h-2.956c-0.918-.2-2.492.08-3.613-0.166-1.514-.332-3.672.1-5.421-0.166A53.1,53.1,0,0,0,668.416,75.853ZM193.077,151.825c2.236-.355,3.352-2.2,5.256-2.985,4.721-1.952,10.08.489,12.155,3.317,2.4,3.266,2.9,8.738.493,12.441-2.614,4.022-10.952,8.356-17.246,8.626a49.383,49.383,0,0,0,.492,9.124V185.5c0.337,1.57.161,3.757,0.493,5.309V193.3q0.411,4.148.821,8.294l0.657,3.982c0.121,0.25.665,0.574,0.821,0.829a15,15,0,0,1,1.479,3.815,10.752,10.752,0,0,1-.165,4.811c-1.49,5.321-4.365,8.042-9.855,9.289-4.986,1.133-9.6-2.9-11.333-5.307-2.956-4.117-3.274-8.561-4.6-14.432q-0.163-2.239-.328-4.48c-0.551-2.539-.267-5.695-0.822-8.293v-2.654c-0.394-1.847.115-4.068-.328-6.137-0.592-2.77-.477-6.484-0.493-9.456q-4.517-.333-9.034-0.663a72.656,72.656,0,0,1-1.806,11.777q-0.246,2.24-.493,4.479c-1.01,4.18-1.261,8.99-2.3,13.1q-0.248,1.908-.493,3.815c-1.783,6.984-2.6,14.549-5.913,19.906-2.35,3.8-4.64,5.632-9.691,6.8a7.647,7.647,0,0,1-2.792.166c-5.481-1.289-8.379-3.931-9.855-9.289a10.709,10.709,0,0,1-.165-4.811,14.988,14.988,0,0,1,1.807-4.313c0.266-.384.93-0.764,1.15-1.161l0.657-2.82c0.952-3.162,1.46-6.956,2.3-10.284q1.724-10.948,3.449-21.9h-2.628c-0.711-.453-1.832-0.325-2.628-0.663a11.352,11.352,0,0,1-5.913-5.972,11.944,11.944,0,0,1,0-7.8c1.945-4.669,8.981-9.9,14.783-10.616a97.255,97.255,0,0,1,2.135-13.27q0.164-1.577.328-3.153c1.079-4.342,1.382-9.313,2.464-13.6,1.135-4.5,1.072-8.867,2.3-13.27,1.027-3.683,1.4-7.654,2.464-11.446,2.5-8.878,4.688-17.763,8.048-25.546,2.59-6,5.438-11.958,11-14.93,1.528-.815,4.319-2.121,7.063-1.493,10.516,2.412,10.778,8.881,13.14,19.243,0.617,2.71.05,5.325,0.657,8.127,1.106,5.1.032,11.752,1.149,16.92,0.28,1.291-.07,3.063.165,4.148v4.478c0.3,1.4-.182,3.535.164,5.142a41.931,41.931,0,0,1,.329,7.631v4.479c0.391,1.823-.272,4.439.164,6.469,0.413,1.929-.294,4.666.164,6.8a31.327,31.327,0,0,1,.164,5.473C192.922,147.5,193.073,149.644,193.077,151.825ZM404.631,72.867l0.657,12.938q0.246,24.8.493,49.6c3.374-.391,7.97-2.881,10.84-4.146,9.552-4.212,17.821-9.772,22.5-18.911,2.2-4.3,3.107-11.509.985-16.754C434.707,82.242,421.231,74.911,404.631,72.867Zm431.648,3.816c-0.775.48-2.313,0.1-3.285,0.332a31.541,31.541,0,0,0-4.927,1.327,26.046,26.046,0,0,0-10.841,9.124c-2.4,3.565-3.469,8.136-4.927,12.606-2.089,6.4-3.348,13.55-5.092,20.569-0.79,3.183-.428,6.237-1.15,9.622-1.186,5.561-.55,16.084.657,21.066,1.058,4.365,1.265,9.082,3.285,12.441,3.857,6.411,9.255,9.751,17.739,11.612a12.635,12.635,0,0,0,4.271-.166c1.755-.386,3.2-0.061,4.763-0.5a26.5,26.5,0,0,0,9.362-4.81c3.554-2.71,5.838-8.448,7.72-12.939,2.155-5.142,3.323-10.942,4.763-17.085q0.494-4.312.986-8.626v-2.489c0.239-1.138-.117-2.966.164-4.313a36.954,36.954,0,0,0-.164-11.113q-0.082-2.322-.164-4.645c-0.737-3.363-.827-7.177-1.643-10.285-0.35-1.332-.257-2.391-0.657-3.65-1.6-5.025-3.76-10.756-7.555-13.6A22.379,22.379,0,0,0,836.279,76.682Zm-671.617,75.31,5.256,0.332c0.049-6.463-.365-12.944-0.492-19.243-0.036-1.758.245-7.7-.329-8.626a38.107,38.107,0,0,1-1.478,8.461Q166.141,142.452,164.662,151.992Z"/>
</svg>
