<svg xmlns="http://www.w3.org/2000/svg" width="1492" height="506" viewBox="0 0 1492 506">
  <defs>
    <style>
      .cls-1 {
        fill: #fff;
        fill-rule: evenodd;
      }
    </style>
  </defs>
  <path id="WM_Police_-_Caroline_1" class="cls-1" d="M873.466-.259c27.691-.237,24.269,18.324,27.855,41.934v59.86q-2.562,56.333-5.123,112.677-2.08,37.449-4.162,74.905-0.96,19.845-1.921,39.693-0.48,12.322-.961,24.648-0.319,12.963-.64,25.929c-0.414,18.33.755,37.457,1.921,54.1l54.749,5.441,31.7,1.281c10.485,1.582,25.77,1.954,36.5.32l31.06-1.6,18.24-3.841c4.16-1.956,6.59-5.382,12.49-6.4,14.32-2.478,26.31,11.907,22.09,25.928-6.6,21.932-35.56,21.768-60.83,25.609-15.42,2.344-45.389,3.077-61.471.64l-21.131-.64L902.6,475.738c-20.06-3.4-41.111-3.029-57.309-10.243-16.491-7.344-13.475-24.474-3.2-35.532-0.24-21.566-3.96-47.3-.64-69.463q0.319-9.762.64-19.526l1.281-29.45q1.121-21.6,2.241-43.214,1.761-31.527,3.522-63.061,2.241-48.171,4.482-96.352,0.16-14.563.32-29.129V45.2c-1.429-9.673-3.027-23.609.32-31.37C858.105,4.9,864.426,3.713,873.466-.259Zm-762,52.177c49.93-.454,61.44,32.564,68.835,74.9,2.186,12.511,3.809,31.088,1.6,45.135-2.631,16.746-.6,34.347-3.2,50.257q-1.6,20-3.2,40.013c-0.913,5.844,1.944,8.209,2.881,12.164,2.371,10-3.743,18.372-9.284,21.767-20.452,12.531-37.781-11.753-34.258-34.251q1.44-19.044,2.881-38.093c4.456-27.454,6.932-75.735.641-102.433-4.246-18.017-12.351-39.208-35.859-24.969C85.59,106.659,75.841,127.39,67.927,146.67c-25.009,60.929-38.9,172.542-19.21,250.963,6.252,24.894,13.3,52.627,32.657,64.341a24.513,24.513,0,0,0,16.008,2.881c23.421-3.96,31.227-19.52,35.219-42.574,1.857-10.728-6.109-15.288-2.882-25.929,3.315-10.93,17.86-19.653,30.736-11.844,15.383,9.33,15.276,39.178,9.285,59.22-9.119,30.5-26.293,51.4-57.63,59.86-5.97,1.612-15.243,3.549-23.372,2.24C33.872,497,17.889,447.836,6.455,395.712,4,384.521,3.95,373.465,1.973,361.461,0.04,349.73,1.7,336.906-.268,324.008V287.836C2.545,270,1.066,251.983,4.214,235.019c9.795-52.8,19.2-99.218,42.9-137.005C53.661,87.578,61,77,70.488,69.525c8.057-6.352,17.173-12.013,28.175-15.365ZM1282.64,61.2c16.13-.4,31.16,10.51,26.89,28.489-1.88,7.923-6.33,9.986-10.56,15.045q-4.65,13.923-9.29,27.849c-10.83,36.143-15.12,75.432-22.73,114.918q-2.4,19.524-4.8,39.053-1.125,17.765-2.24,35.532v23.047c2.16,13.377,8.27,23.722-.64,35.212-13.49,17.4-38.59,7.356-48.67-5.442-17.64-22.4-27.78-51.955-39.06-80.666-5.51-14.021-12.82-29.653-15.69-45.135h-0.32q-1.11,20-2.24,40.013V303.2c-1.56,10.216-1.25,24.887.32,34.891q1.125,16.963,2.24,33.931,2.25,11.523,4.49,23.048c1.74,5.631,4.68,9.922,5.76,16.325,2.34,13.935-12.4,28.44-26.58,25.929-24.6-4.361-26.03-34.8-30.41-59.54-2.04-11.5-1.27-24.764-3.2-37.132V329.77c-1.77-11.6-1.46-32.228.32-43.534q0.63-16.644,1.28-33.291c4.54-28.812,3.75-58.368,9.28-85.148,4.38-21.216,5.14-51.189,20.49-61.46,14.25-9.534,32.33-.725,36.5,12.484q1.29,12.323,2.56,24.648c7.47,34.414,16.01,66.973,26.9,97.952,2.83,8.053,7.93,30,12.48,35.212q3.525-27.047,7.05-54.1c7.11-34.948,11.85-70.133,21.45-102.114,6.12-20.4,10.8-45.3,27.21-55.378C1274.77,62.993,1278.68,62.911,1282.64,61.2ZM338.788,314.725q1.281,21.285,2.561,42.574,0.962,9.282,1.921,18.567c1.088,4.022,4.23,7.065,5.123,12.164,2.522,14.392-9.269,23.449-19.85,25.288-10.6,1.843-18.156-4.949-22.092-10.244-11.891-16-12.661-60.291-12.807-87.708l-17.609-1.281-6.4,41.294c-4.28,21.379-5.241,45.225-15.048,61.14-4.064,6.595-11.994,15.711-24.333,13.444-10.486-1.926-22.5-10.844-19.85-25.288,1.051-5.718,3.891-8.523,6.083-12.484l3.2-12.164q4.643-27.687,9.285-55.378c-14.984.318-28.341-11.889-21.772-27.85,4.075-9.9,16.79-18.718,28.815-20.486q4.8-28.966,9.606-57.939c7.518-34.633,12.537-68.193,24.972-96.992,5.127-11.873,16.076-35.081,35.219-31.691,23.253,4.118,22.691,25.206,26.574,48.976,2.743,16.795.11,35.211,2.881,53.138q1.12,40.809,2.241,81.627c3.946-.9,5.558-3.578,8.645-5.122,10.075-5.039,21.882.456,26.253,7.042C386.683,296.863,356.748,313.551,338.788,314.725Zm82.6,1.921c-4.648.16-9.452,1.309-13.767,0-11.052-3.353-19.782-18.479-11.526-31.05,5.547-8.447,13.927-7.226,25.293-10.244q-0.641-48.97-1.281-97.952c-1.078-7.048,1.522-27.112-1.921-30.73-3.352-1.7-6.541-2.346-9.285-4.482-10.827-8.427-7.4-27.078,2.882-33.291,8.524-5.15,22.652-3.863,34.258-5.761l20.17,0.64c7.864,1.313,14.7,1.123,21.772,2.881,20.061,4.99,37.117,12.465,51.546,23.047a106.806,106.806,0,0,1,28.175,31.371,89.9,89.9,0,0,1,8.645,21.127c5,17.828,1.452,39.131-4.483,52.817-14.008,32.3-49.94,57.956-86.445,67.542L508.8,340.014c15.87,26.461,29.872,54.258,46.1,80.026l6.724,10.243,3.842,2.241c5.479,4.123,9.724,13.76,6.4,22.728-1.438,3.885-3.386,7.348-6.4,9.6-13.557,10.129-29.266-.921-36.179-9.923-15.208-19.8-26.081-43.252-39.06-65.3l-22.092-38.413h-0.32c0.3,24.849-3.226,64.881-16.969,75.545-7.156,5.554-19.437,8.375-28.815,2.561-5.684-3.524-12.813-12.353-10.885-23.047,0.969-5.376,4.048-8.534,5.122-13.125C421.382,371.306,421.247,341.913,421.391,316.646ZM710.5,108.9c54.517-.8,79.74,34.342,90.608,77.786,2.58,10.314,2.608,21.45,4.482,32.651q0.16,6.561.32,13.124c2.526,15.841.1,36.022-2.561,49.617-8.461,43.182-19.75,76.911-50.587,97.312-11.807,7.811-36.3,18.4-58.59,14.725-37.374-6.169-63.726-22.258-76.84-52.178-23.5-53.618-7.3-149.661,17.929-189.822,10.739-17.1,28.574-32.071,49.626-38.733l17.929-3.841Zm679.069,42.254v47.7q-0.15,12.483-.32,24.968-1.275,31.688-2.56,63.381c19.96-6.027,63.46-7.383,58.59,19.847-1.74,9.747-7.96,16.111-17.61,17.926l-16.96-.32q-12.975,1.76-25.94,3.521-0.8,31.527-1.6,63.061c12.94,0.782,28.8,2.227,40.98-.641,5.11-1.2,7.98-4.746,13.77-5.762,12.31-2.157,25.09,10.588,22.73,23.048-4.78,25.3-51.5,28.8-82.6,23.688-11.62-1.91-24.29-1.327-32.02-7.042-13.62-10.073-10.29-41.145-9.92-64.022q3.2-83.379,6.4-166.775c3.18-20.61-6.66-61.128,1.28-73.944,7.92-12.77,29.22-9.283,49.31-9.283,36.06,0,93.78-.183,98.93,29.45,2.13,12.251-10.45,24.927-22.73,22.727-7.16-1.28-9.95-5.736-16.33-7.362C1434.55,150.62,1411.36,151.3,1389.57,151.151ZM996.09,111.458c34.89-.8,43.47,36.216,13.13,45.455-19.43,5.917-45.934-8.843-37.463-29.449C976.252,116.53,984.775,115.9,996.09,111.458ZM466.534,144.429c0.234,38.819,2.185,80.277,2.242,120.68,23.085-3.871,55.476-25.3,64.673-43.214,4.486-8.737,6.438-22.919,2.241-33.611C525.472,162.251,498.656,148.672,466.534,144.429Zm246.209,11.844-12.167,1.921c-10.543,3.211-19.356,10.687-24.973,18.886-5.8,8.465-8.241,19.921-11.526,30.73-14.52,47.775-24.711,129.7,32.017,138.926,12.681,2.062,25.63-2.913,32.337-7.683,7.572-5.384,12.375-13.672,16.328-22.727C762.769,275.077,774.629,156.457,712.743,156.273ZM996.73,169.4c36.12-.278,23.02,35.05,27.53,65.622q0.33,18.4.65,36.812-0.165,13.923-.33,27.849-0.15,13.284-.32,26.569c-3.64,23.792-1.62,47.366-7.36,68.183-3.55,12.894-12.06,32.126-30.735,28.809-11.039-1.96-23.348-11.3-20.811-26.249,1.316-7.749,5.4-11.579,7.044-19.206,3.527-16.326,1.792-34.711,4.482-52.5q0.16-12.163.32-24.328,0.16-14.4.32-28.81-0.319-18.725-.64-37.452V222.535c-1.924-12.945-3.1-33.565,2.241-42.254C983.271,173.535,988.886,172.714,996.73,169.4Zm-704.366,105q-0.8-26.886-1.6-53.778-4.321,26.566-8.645,53.138Z"/>
</svg>
