<svg xmlns="http://www.w3.org/2000/svg" width="948" height="484" viewBox="0 0 948 484">
  <defs>
    <style>
      .cls-1 {
        fill: #fff;
        fill-rule: evenodd;
      }
    </style>
  </defs>
  <path id="Claire_1" class="cls-1" d="M243.5,0.054c27.867-.238,24.423,18.374,28.032,42.047v60.021q-2.579,56.485-5.156,112.982-2.094,37.549-4.188,75.107-0.967,19.9-1.933,39.8-0.485,12.355-.967,24.715-0.322,13-.644,26c-0.417,18.38.759,37.559,1.933,54.244l55.1,5.456,31.9,1.284c10.463,1.574,25.708,1.946,36.409.321,11-1.67,21.381.131,31.575-1.605l18.366-3.851c4.183-1.962,6.632-5.4,12.566-6.42,14.412-2.484,26.48,11.939,22.232,26-6.644,21.988-35.792,21.827-61.219,25.678-13.182,2-35.835,3.092-49.941.962l-20.3-.321c-21.5-3.292-44.047-1.69-64.441-5.135-20.2-3.412-41.369-3.036-57.674-10.271-16.595-7.364-13.561-24.54-3.222-35.628-0.241-21.624-3.985-47.424-.644-69.65q0.321-9.789.644-19.579,0.645-14.763,1.289-29.529,1.128-21.664,2.255-43.331,1.773-31.613,3.545-63.231,2.255-48.3,4.51-96.612,0.162-14.6.323-29.208V45.632c-1.439-9.7-3.047-23.673.322-31.455C228.045,5.231,234.406,4.036,243.5.054Zm-131.137,7.7c49.951-.455,61.548,32.87,68.952,75.107,2.2,12.545,3.832,31.171,1.611,45.257-2.65,16.8-.607,34.433-3.222,50.392q-1.611,20.059-3.222,40.121c-0.919,5.86,1.956,8.231,2.9,12.2,2.385,10.025-3.768,18.422-9.344,21.826-20.591,12.571-38.021-11.788-34.476-34.344q1.449-19.095,2.9-38.195c4.483-27.528,6.976-75.939.644-102.71-4.272-18.064-12.439-39.308-36.087-25.036-17.012,10.267-26.837,31.07-34.8,50.392-25.168,61.094-39.151,173.01-19.332,251.641,6.292,24.961,13.384,52.768,32.865,64.514a24.739,24.739,0,0,0,16.11,2.889c23.564-3.969,31.427-19.579,35.443-42.689,1.871-10.772-6.128-15.3-2.9-26,3.309-10.964,18.026-19.675,30.931-11.876,15.483,9.356,15.374,39.28,9.344,59.379-9.176,30.585-26.463,51.537-58,60.022-6.009,1.616-15.34,3.558-23.521,2.246-55.209-8.851-71.3-58.154-82.806-110.413-2.47-11.221-2.521-22.308-4.511-34.344C-0.093,306.373,1.58,293.514-.4,280.582v-36.27c2.831-17.888,1.343-35.95,4.511-52.96C16.406,125.3,29.573,56.2,74.025,22.843A81.685,81.685,0,0,1,99.157,10ZM614.36,267.1c-4.678.16-9.513,1.312-13.855,0-11.122-3.362-19.908-18.529-11.6-31.134,5.582-8.469,14.015-7.246,25.454-10.271q-0.645-49.1-1.289-98.217c-1.085-7.067,1.532-27.185-1.933-30.813-3.172-1.6-6.4-2.156-9.022-4.173-10.982-8.448-8.111-27.268,2.578-33.7,8.562-5.154,22.835-3.88,34.475-5.777l19.977,0.642,15.788,1.6c23.155,5.053,42.145,12.575,58.319,24.394a107.492,107.492,0,0,1,28.354,31.455,90.141,90.141,0,0,1,8.7,21.184c5.041,17.87,1.458,39.249-4.511,52.96-14.1,32.392-50.254,58.111-86.995,67.724q11.76,18.776,23.521,37.554c15.969,26.53,30.063,54.406,46.4,80.242l7.089,10.592c6.117,6.324,15.241,10.58,9.988,24.715-1.448,3.9-3.407,7.368-6.444,9.629-13.643,10.156-29.452-.924-36.409-9.95-15.305-19.857-26.247-43.369-39.309-65.478L661.4,301.766h-0.322c0.307,24.915-3.247,65.055-17.077,75.748-7.2,5.569-19.56,8.4-29,2.568-5.72-3.533-12.895-12.386-10.955-23.11,0.975-5.39,4.074-8.557,5.155-13.159C614.35,321.908,614.215,292.436,614.36,267.1Zm-192.033,21.5q1.288,21.342,2.577,42.689,0.967,9.307,1.934,18.616c1.094,4.034,4.256,7.085,5.155,12.2,2.538,14.431-9.328,23.512-19.977,25.356-10.671,1.848-18.271-4.962-22.232-10.271-11.97-16.044-12.741-60.446-12.888-87.945l-17.721-1.284q-3.222,20.7-6.444,41.405c-4.307,21.437-5.274,45.347-15.144,61.3-4.09,6.613-12.07,15.754-24.487,13.481-10.553-1.932-22.647-10.873-19.977-25.357,1.057-5.733,3.916-8.546,6.122-12.518l3.222-12.2q4.671-27.762,9.344-55.528c-15.079.319-28.521-11.92-21.91-27.925,4.091-9.9,16.92-18.771,29-20.542q4.832-29.044,9.666-58.095c7.566-34.726,12.617-68.377,25.131-97.254,5.159-11.9,16.178-35.176,35.443-31.776,23.4,4.129,22.836,25.276,26.743,49.108,2.76,16.84.11,35.306,2.9,53.281q1.128,40.92,2.256,81.848c4.4-1.006,6.485-4.233,10.31-5.778,10.126-4.088,20.751,1.61,24.81,7.7C470.526,270.7,440.4,287.427,422.327,288.606ZM518.343,69.384c35.121-.8,43.732,36.317,13.211,45.578-19.551,5.933-46.219-8.877-37.7-29.529C498.379,74.469,506.956,73.833,518.343,69.384Zm326.714,42.048v47.824q-0.16,12.516-.322,25.036-1.288,31.773-2.578,63.552c20.081-6.044,63.865-7.4,58.963,19.9-1.754,9.774-8.013,16.154-17.721,17.974l-17.076-.321-26.1,3.531q-0.806,31.612-1.611,63.231c13.02,0.785,28.983,2.233,41.242-.642,5.135-1.205,8.024-4.759,13.855-5.778,12.389-2.164,25.242,10.615,22.876,23.11-4.8,25.38-51.812,28.909-83.128,23.752-11.728-1.932-24.388-1.354-32.221-7.061-10.591-7.719-13-34.857-9.988-54.244V319.1q0.805-20.861,1.611-41.726,0.645-14.442,1.289-28.887,1.772-47.5,3.544-95.007c1.673-19.472-5.689-62.284,1.289-73.5,7.965-12.8,29.4-9.308,49.619-9.308,36.293,0,94.378-.189,99.561,29.53,2.143,12.284-10.513,24.994-22.876,22.788-7.173-1.279-10.016-5.753-16.433-7.382C890.308,110.9,867,111.584,845.057,111.431ZM659.79,94.419c0.236,38.923,2.2,80.493,2.256,121.006,23.234-3.882,55.826-25.369,65.085-43.331,4.515-8.76,6.479-22.982,2.255-33.7C719.107,112.3,692.1,98.672,659.79,94.419Zm-140.8,33.06c36.353-.279,23.161,35.144,27.709,65.8q0.323,18.453.644,36.911-0.16,13.962-.322,27.925-0.16,13.319-.322,26.64c-3.664,23.854-1.626,47.5-7.411,68.367-3.583,12.928-12.128,32.214-30.931,28.887-11.178-1.978-23.634-11.45-20.943-26.641,1.346-7.6,5.447-11.366,7.088-18.937,3.546-16.361,1.808-34.833,4.511-52.639q0.16-12.677.322-25.356,0.162-14.123.322-28.246-0.321-18.453-.644-36.911v-12.2c-1.61-10.793-2.865-33.662,1.289-41.084C504.662,132.2,510.232,131.167,518.988,127.479ZM375.607,248.164Q374.8,221.2,374,194.241q-4.349,26.637-8.7,53.281Z"/>
</svg>
