<svg xmlns="http://www.w3.org/2000/svg" width="1040" height="465" viewBox="0 0 1040 465">
  <defs>
    <style>
      .cls-1 {
        fill: #fff;
        fill-rule: evenodd;
      }
    </style>
  </defs>
  <path id="WM_Police_-_Johan_1" class="cls-1" d="M166.217,47.227q2.191,44.647,4.386,89.3,0.469,26.632.94,53.269,0.156,13.629.313,27.261-0.314,17.388-.627,34.781-0.156,9.868-.313,19.741-1.566,22.087-3.133,44.181-1.252,12.846-2.506,25.694c-3.7,20.254-6.429,40.214-12.532,57.655-10.223,29.216-23.116,53.763-53.259,62.982-6.557,2.006-16.437,4.116-25.377,2.507-38.649-6.957-59.421-40.962-69.864-76.142-6.9-23.262-5.8-49.8,11.905-60.476,14.934-9,31.571,1.753,34.775,14.727,2.566,10.391-5.028,16.323-4.386,21.621,2.293,18.944,11.115,35.859,21.93,46.688,4.243,4.249,10.3,9.773,19.111,6.581,20.28-7.347,26-52.331,30.7-77.4,3.709-19.78,2.724-41.916,5.953-63.3q0.312-12.689.626-25.38,0.157-8.3.313-16.608V191.991q-0.939-39.321-1.879-78.649-1.41-28.041-2.82-56.088c-17.973,1.961-32.182.424-40.1-10.967C70.257,31.733,78.917,11.4,92.28,6.805c5.2-1.787,12.948-.953,17.231.94,2.05,0.906,3.424,3.543,6.579,3.133,19.957-2.589,54.548-18.954,73.623-5.64,13.218,9.225,15.138,31.329.314,40.421C181.7,50.767,175.726,47.7,166.217,47.227ZM1013.04,29.053c15.81-.39,30.49,10.285,26.32,27.888-1.84,7.756-6.19,9.775-10.34,14.727q-4.545,13.629-9.08,27.261c-10.61,35.38-14.8,73.839-22.248,112.491q-2.349,19.111-4.7,38.227-1.1,17.389-2.193,34.782v22.56c2.112,13.094,8.092,23.221-.627,34.468-13.2,17.03-37.757,7.2-47.62-5.327-17.266-21.928-27.182-50.857-38.222-78.962-5.391-13.725-12.55-29.027-15.351-44.182h-0.313q-1.1,19.582-2.193,39.168V265.94c-1.53,10-1.222,24.362.313,34.155q1.1,16.605,2.193,33.214l4.386,22.561c1.709,5.512,4.585,9.713,5.639,15.98,2.294,13.64-12.136,27.84-26,25.381-24.082-4.269-25.471-34.059-29.763-58.282-2-11.262-1.242-24.24-3.133-36.347V291.948c-1.726-11.36-1.423-31.548.314-42.615q0.625-16.291,1.253-32.588c4.439-28.2,3.676-57.134,9.085-83.349,4.286-20.768,5.032-50.108,20.051-60.162,13.94-9.332,31.635-.709,35.715,12.22q1.254,12.063,2.507,24.127c7.305,33.682,15.659,65.561,26.316,95.883,2.771,7.883,7.763,29.365,12.218,34.468q3.447-26.475,6.893-52.955c6.956-34.21,11.6-68.652,20.99-99.957,5.991-19.968,10.565-44.341,26.632-54.208C1005.35,30.806,1009.17,30.726,1013.04,29.053ZM597.619,218.625c13.331-.125,25.048,12.845,19.111,27.261-2.9,7.036-11.279,13.682-18.8,15.981,0.4,34.877,2.057,86.932-11.9,107.79-4.265,6.371-12.81,14.7-25.063,12.534-10.875-1.927-22.982-11.174-20.364-26.008,1.284-7.276,5.033-9.072,7.206-13.787l1.566-14.1c2.883-18.027,2.044-39.117,2.193-58.909l-57.959-2.82c0.019,25.5-5.754,53.959-1.566,80.216,1.386,8.694,5.521,11.95,6.892,20.367,2.317,14.225-9.953,23.228-20.677,25.068-10.774,1.848-18.522-5.29-22.557-10.654-14.348-19.069-12.088-70.452-9.086-102.15-14.481.313-27.34-11.829-20.99-27.261,3.555-8.639,14.237-16.914,23.81-19.427q1.88-28.2,3.76-56.4,0.625-18.173,1.253-36.348a119.255,119.255,0,0,0-.314-32.587c-1.157-7.076-5.59-9.851-6.892-16.921-2.825-15.335,9.223-24.722,20.364-26.634,19.7-3.381,28.333,16.676,31.329,31.334,2.487,12.167,4.042,31.194,1.88,45.435q-0.469,15.666-.94,31.334-1.724,27.415-3.446,54.835l55.139,2.82q-0.156-36.187-.313-72.382,0.156-15.039.313-30.081,0.156-9.713.313-19.427c1.792-11.663,1.259-24.184,3.447-34.781C558.7,56.586,566.249,33.455,588.22,37.2,599.229,39.076,611.4,48.116,608.9,62.894c-1.594,9.421-7.018,12.3-8.772,21.934-2.555,14.037.106,28.972-2.193,44.181Q597.776,173.813,597.619,218.625Zm181.4,64.549q1.253,20.835,2.506,41.675,0.939,9.086,1.88,18.174c1.064,3.938,4.138,6.916,5.012,11.907,2.468,14.088-9.07,22.954-19.424,24.754-10.376,1.8-17.766-4.844-21.617-10.027-11.638-15.664-12.389-59.01-12.531-85.856l-17.232-1.253q-3.132,20.208-6.265,40.421c-4.188,20.928-5.128,44.27-14.725,59.848-3.977,6.457-11.737,15.38-23.81,13.161-10.261-1.886-22.021-10.615-19.424-24.754,1.028-5.6,3.807-8.343,5.952-12.221q1.566-5.952,3.133-11.907,4.542-27.1,9.086-54.208c-14.663.312-27.732-11.637-21.3-27.261,3.987-9.692,16.429-18.323,28.2-20.054q4.7-28.355,9.4-56.715c7.357-33.9,12.268-66.752,24.437-94.943,5.016-11.622,15.73-34.34,34.462-31.021,22.753,4.031,22.2,24.674,26,47.941,2.69,16.474.126,34.9,2.819,52.329q1.1,39.791,2.193,79.589c3.861-.885,5.439-3.5,8.459-5.014,9.86-4.932,21.413.447,25.69,6.894C825.881,265.689,796.589,282.024,779.015,283.174ZM305.945,81.694c53.346-.784,78.027,33.616,88.661,76.143,2.521,10.082,2.553,21,4.386,31.961q0.157,6.423.313,12.847c2.472,15.506.1,35.26-2.506,48.568-8.279,42.271-19.325,75.287-49.5,95.257-11.554,7.646-35.521,18.015-57.332,14.413-36.572-6.038-62.357-21.787-75.19-51.075-23-52.485-7.141-146.5,17.544-185.812,10.511-16.74,27.956-31.391,48.56-37.915l17.545-3.76Zm2.193,46.375-11.9,1.88c-10.317,3.144-18.942,10.462-24.437,18.488-5.674,8.285-8.064,19.5-11.279,30.081-14.208,46.765-24.181,126.962,31.329,135.991,12.409,2.018,25.08-2.852,31.643-7.521,7.41-5.271,12.109-13.384,15.978-22.247C357.09,244.362,368.694,128.249,308.138,128.069ZM733.587,243.693q-0.783-26.319-1.566-52.642-4.228,26.006-8.459,52.015Z"/>
</svg>
