<svg xmlns="http://www.w3.org/2000/svg" width="1468" height="528" viewBox="0 0 1468 528">
  <defs>
    <style>
      .cls-1 {
        fill: #fff;
        fill-rule: evenodd;
      }
    </style>
  </defs>
  <path id="WM_Police_-_Morgane_1" class="cls-1" d="M242.617-.248c22.542-.3,29.1,16.92,25.45,40.619L267.125,58q-0.944,17.631-1.886,35.266-3.3,53.366-6.6,106.742-1.728,33.531-3.456,67.068-0.786,19.2-1.571,38.414-0.471,14.955-.943,29.913-0.314,13.382-.628,26.765-0.158,19.834-.314,39.674c0,35,.43,69.64,5.341,100.129,2.219,13.779-8.778,23.3-18.538,25.5-40.8,9.2-28.248-65.936-32.991-97.3-2.276-15.048-.4-32.645-0.315-47.86q0.629-30.382,1.257-60.771,0.471-17.631.943-35.266,2.67-52.578,5.341-105.168,2.827-46.753,5.656-93.517v0.63C211,95.61,205.85,106.941,200.2,115.941c-14.345,22.846-28.346,46.344-40.847,71.161-6.966,13.829-8.191,35.224-21.365,42.823C112.73,244.492,89.6,206.319,80.8,193.085c-6.57-9.88-15.988-20.83-20.109-32.432H60.378q-3.927,52.736-7.855,105.482-1.885,39.356-3.77,78.719-0.314,9.759-.628,19.522c-3.25,21.129-.105,47.5,2.514,65.493C52.761,444.458,36.2,458.007,21.1,453.8c-6.514-1.815-12.529-6.8-15.082-12.6-4.986-11.316-7.364-48.993-4.713-66.124q0.157-12.12.314-24.245,1.257-27.707,2.514-55.418L6.649,253.54l1.885-27.709,7.855-94.777c3.73-22.945,1.755-69.149,12.254-83.756,7.8-10.846,28.123-12.928,37.076-1.574,5.446,6.906,4.129,15.1,6.6,25.82l6.6,21.1a349.826,349.826,0,0,0,24.822,50.065q7.069,11.334,14.139,22.671h0.629l9.426-18.263c6.717-11.551,12.692-23.189,19.481-34.321,15.791-25.895,31.845-50.7,49.644-74.31,8.467-11.231,17.43-23.327,28.907-31.487C231.024,3.4,236.3,2.554,242.617-.248ZM1266.92,64.3c15.85-.392,30.58,10.335,26.4,28.024-1.85,7.794-6.21,9.823-10.37,14.8-3.56,4.262-8.07,24.179-10.06,30.858-10.67,35.834-14.72,74.852-21.99,113.984q-2.04,17-4.08,34.006-1.11,17.474-2.2,34.951v22.671c2.11,13.158,8.11,23.334-.63,34.636-13.24,17.106-37.87,7.235-47.76-5.353-17.32-22.035-27.26-51.106-38.33-79.348-5.41-13.791-12.59-29.168-15.4-44.4h-0.32q-1.1,19.677-2.19,39.359v13.855c-1.54,10.049-1.23,24.48.31,34.321q1.1,16.686,2.2,33.376,2.2,11.336,4.4,22.671c1.71,5.539,4.6,9.761,5.65,16.059,2.3,13.707-12.17,27.975-26.08,25.5-24.14-4.29-25.54-34.231-29.84-58.567-2.01-11.317-1.25-24.359-3.15-36.525V328.48c-1.73-11.415-1.42-31.7.32-42.823q0.63-16.371,1.25-32.746c4.46-28.341,3.69-57.414,9.12-83.757,4.29-20.869,5.04-50.352,20.11-60.456,13.98-9.377,31.72-.712,35.81,12.281q1.26,12.12,2.52,24.245c7.32,33.846,15.7,65.881,26.39,96.351,2.78,7.922,7.79,29.508,12.26,34.636q3.45-26.6,6.91-53.213c6.97-34.377,11.63-68.987,21.05-100.445,6.01-20.066,10.6-44.558,26.71-54.473C1259.2,66.063,1263.04,65.983,1266.92,64.3ZM1034.73,311.792q1.245,20.937,2.51,41.878l1.89,18.263c1.06,3.957,4.15,6.95,5.02,11.965,2.48,14.157-9.09,23.066-19.48,24.875s-17.82-4.868-21.68-10.076c-11.67-15.74-12.423-59.3-12.566-86.275l-17.281-1.26q-3.143,20.307-6.284,40.619c-4.2,21.03-5.143,44.486-14.768,60.141-3.989,6.487-11.771,15.454-23.88,13.224-10.291-1.9-22.084-10.667-19.48-24.875,1.031-5.625,3.818-8.383,5.97-12.28l3.142-11.965,9.112-54.473c-14.705.314-27.813-11.694-21.366-27.394,3.989-9.715,16.5-18.415,28.278-20.152q4.713-28.493,9.426-56.992c7.379-34.066,12.3-67.078,24.508-95.407,5.029-11.673,15.787-34.505,34.559-31.172,22.82,4.051,22.27,24.794,26.08,48.175,2.7,16.555.13,35.072,2.83,52.584q1.1,39.986,2.2,79.978c4.3-.986,6.32-4.152,10.05-5.668,9.88-4.01,20.24,1.58,24.2,7.557C1081.73,294.223,1052.35,310.635,1034.73,311.792ZM532.313,314c-4.561.157-9.276,1.288-13.51,0-10.847-3.3-19.414-18.177-11.312-30.543,5.444-8.308,13.668-7.108,24.822-10.076q-0.627-48.171-1.256-96.351c-1.059-6.933,1.493-26.669-1.886-30.228-3.289-1.668-6.419-2.308-9.111-4.408-10.627-8.29-7.264-26.636,2.827-32.747,8.366-5.066,22.231-3.8,33.62-5.668l19.8,0.63c7.718,1.292,14.431,1.1,21.366,2.834,19.688,4.909,36.426,12.261,50.587,22.671a104.974,104.974,0,0,1,27.65,30.857,88.561,88.561,0,0,1,8.484,20.782c4.9,17.537,1.425,38.491-4.4,51.954-13.748,31.776-49.01,57.008-84.836,66.439l22.937,36.84c15.574,26.028,29.316,53.371,45.246,78.718l6.6,10.076,3.771,2.2c5.341,4.125,9.562,13.481,6.284,22.356-1.412,3.822-3.323,7.229-6.284,9.446-13.305,9.964-28.721-.906-35.506-9.761-14.925-19.48-25.6-42.545-38.333-64.234Q589.03,366.9,578.187,348h-0.314c0.3,24.443-3.166,63.82-16.653,74.31-7.023,5.463-19.075,8.238-28.278,2.519-5.579-3.466-12.575-12.151-10.683-22.67,0.951-5.288,3.973-8.395,5.027-12.91C532.3,367.763,532.172,338.85,532.313,314Zm324.26,37.785c0.228,14.975,5.18,28.825,9.112,40.3,16.27,0.921,22.029,25.4,9.74,34.951-19.779,15.377-39.948-5.594-46.5-19.523l-1.571,1.26c-2.608,5.5-9.183,9.619-14.139,12.91-26.971,17.905-56.983,3.051-71.325-17-35.058-49.025-32.253-160.854-8.8-221.357,7.051-18.186,15.281-34.222,26.394-48.175a68.394,68.394,0,0,1,39.9-24.245c15.845-3.292,32.587,2.223,42.1,7.871,36.922,21.916,39.119,75.147,28.278,127.209q-0.942,6.3-1.885,12.595l3.456,4.723c3.254,7.526.7,16.538-3.142,21.412-13.067,16.577-37.366,9.171-41.16-11.021-1.569-8.346.467-17.963,1.885-24.875,4.91-23.936,12.349-64.5.942-86.59-4.2-8.13-16.271-15.823-28.592-10.391-12.556,5.536-20.27,20.942-25.765,33.692-17,39.449-28.018,108.5-14.768,161.215,3.707,14.745,7.6,31.221,17.91,39.359,16.305,12.873,30.715-20.276,32.363-34.636-18.1.184-28.785-18.613-17.6-33.062a21.29,21.29,0,0,1,10.054-6.612c7.409-2.069,32.339-1.274,40.533,0l17.6-.315C886.734,315.992,885.244,352.224,856.573,351.781Zm510.9-199V199.7q-0.15,12.279-.31,24.56-1.26,31.17-2.52,62.345c19.58-5.929,62.28-7.263,57.5,19.522-1.71,9.588-7.81,15.848-17.28,17.633l-16.65-.315-25.45,3.464q-0.795,31.011-1.57,62.03c12.69,0.77,28.26,2.191,40.21-.63,5.01-1.181,7.83-4.668,13.51-5.668,12.08-2.122,24.63,10.415,22.31,22.671-4.69,24.883-50.54,28.33-81.06,23.3-11.41-1.879-23.84-1.305-31.42-6.927-13.37-9.9-10.1-40.479-9.74-62.975q3.135-82.017,6.28-164.049c3.12-20.274-6.54-60.13,1.26-72.736,7.77-12.561,28.67-9.131,48.39-9.131,35.38,0,92.03-.18,97.09,28.968,2.08,12.051-10.26,24.52-22.31,22.356-7.02-1.259-9.76-5.642-16.03-7.242C1411.6,152.257,1388.87,152.931,1367.47,152.781Zm-980.319-38.1c53.5-.788,78.255,33.78,88.92,76.514,2.528,10.132,2.56,21.105,4.4,32.117q0.156,6.454.314,12.91c2.479,15.582.1,35.433-2.514,48.806-8.261,42.262-19.309,75.965-49.644,95.721-11.729,7.639-35.507,18.123-57.5,14.484-36.678-6.067-62.538-21.894-75.409-51.324-23.066-52.747-7.159-147.209,17.6-186.72,10.54-16.823,28.037-31.545,48.7-38.1l17.6-3.778Zm189.465,29.913c0.23,38.184,2.145,78.964,2.2,118.707,22.655-3.807,54.443-24.887,63.469-42.508,4.4-8.593,6.318-22.544,2.2-33.061C634.456,162.122,608.144,148.768,576.616,144.594ZM389.35,161.282l-11.939,1.89c-10.347,3.158-19,10.513-24.508,18.577-5.691,8.326-8.088,19.6-11.312,30.228-14.25,46.993-24.249,127.583,31.421,136.655,13.313,2.17,26.172-3.366,32.991-8.5,6.786-5.111,11.145-13.093,14.768-21.411C438.445,278.144,450.085,161.463,389.35,161.282ZM989.167,272.118q-0.785-26.447-1.571-52.9-4.24,26.131-8.483,52.269Z"/>
</svg>
